<?xml version="1.0" encoding="utf-8" standalone="no"?>
<!DOCTYPE svg PUBLIC "-//W3C//DTD SVG 1.1//EN"
  "http://www.w3.org/Graphics/SVG/1.1/DTD/svg11.dtd">
<svg xmlns:xlink="http://www.w3.org/1999/xlink" width="795.6pt" height="457.92pt" viewBox="0 0 795.6 457.92" xmlns="http://www.w3.org/2000/svg" version="1.1">
 <metadata>
  <rdf:RDF xmlns:dc="http://purl.org/dc/elements/1.1/" xmlns:cc="http://creativecommons.org/ns#" xmlns:rdf="http://www.w3.org/1999/02/22-rdf-syntax-ns#">
   <cc:Work>
    <dc:type rdf:resource="http://purl.org/dc/dcmitype/StillImage"/>
    <dc:date>2026-04-08T22:08:32.093393</dc:date>
    <dc:format>image/svg+xml</dc:format>
    <dc:creator>
     <cc:Agent>
      <dc:title>Matplotlib v3.10.7, https://matplotlib.org/</dc:title>
     </cc:Agent>
    </dc:creator>
   </cc:Work>
  </rdf:RDF>
 </metadata>
 <defs>
  <style type="text/css">*{stroke-linejoin: round; stroke-linecap: butt}</style>
 </defs>
 <g id="figure_1">
  <g id="patch_1">
   <path d="M 0 457.92 
L 795.6 457.92 
L 795.6 0 
L 0 0 
z
" style="fill: #ffffff"/>
  </g>
  <g id="axes_1">
   <g id="patch_2">
    <path d="M 30.636 149.1264 
L 116.568 149.1264 
Q 132.192 149.1264 132.192 140.256 
L 132.192 87.0336 
Q 132.192 78.1632 116.568 78.1632 
L 30.636 78.1632 
Q 15.012 78.1632 15.012 87.0336 
L 15.012 140.256 
Q 15.012 149.1264 30.636 149.1264 
z
" clip-path="url(#p37e7099616)" style="fill: #dbeafe; stroke: #1d4ed8; stroke-width: 1.8; stroke-linejoin: miter"/>
   </g>
   <g id="patch_3">
    <path d="M 147.816 149.1264 
L 241.56 149.1264 
Q 257.184 149.1264 257.184 140.256 
L 257.184 87.0336 
Q 257.184 78.1632 241.56 78.1632 
L 147.816 78.1632 
Q 132.192 78.1632 132.192 87.0336 
L 132.192 140.256 
Q 132.192 149.1264 147.816 149.1264 
z
" clip-path="url(#p37e7099616)" style="fill: #dcfce7; stroke: #15803d; stroke-width: 1.8; stroke-linejoin: miter"/>
   </g>
   <g id="patch_4">
    <path d="M 272.808 149.1264 
L 366.552 149.1264 
Q 382.176 149.1264 382.176 140.256 
L 382.176 87.0336 
Q 382.176 78.1632 366.552 78.1632 
L 272.808 78.1632 
Q 257.184 78.1632 257.184 87.0336 
L 257.184 140.256 
Q 257.184 149.1264 272.808 149.1264 
z
" clip-path="url(#p37e7099616)" style="fill: #ede9fe; stroke: #7c3aed; stroke-width: 1.8; stroke-linejoin: miter"/>
   </g>
   <g id="patch_5">
    <path d="M 397.8 149.1264 
L 491.544 149.1264 
Q 507.168 149.1264 507.168 140.256 
L 507.168 87.0336 
Q 507.168 78.1632 491.544 78.1632 
L 397.8 78.1632 
Q 382.176 78.1632 382.176 87.0336 
L 382.176 140.256 
Q 382.176 149.1264 397.8 149.1264 
z
" clip-path="url(#p37e7099616)" style="fill: #ede9fe; stroke: #7c3aed; stroke-width: 1.8; stroke-linejoin: miter"/>
   </g>
   <g id="patch_6">
    <path d="M 522.792 149.1264 
L 616.536 149.1264 
Q 632.16 149.1264 632.16 140.256 
L 632.16 87.0336 
Q 632.16 78.1632 616.536 78.1632 
L 522.792 78.1632 
Q 507.168 78.1632 507.168 87.0336 
L 507.168 140.256 
Q 507.168 149.1264 522.792 149.1264 
z
" clip-path="url(#p37e7099616)" style="fill: #ffe4e6; stroke: #be123c; stroke-width: 1.8; stroke-linejoin: miter"/>
   </g>
   <g id="patch_7">
    <path d="M 647.784 149.1264 
L 764.964 149.1264 
Q 780.588 149.1264 780.588 140.256 
L 780.588 87.0336 
Q 780.588 78.1632 764.964 78.1632 
L 647.784 78.1632 
Q 632.16 78.1632 632.16 87.0336 
L 632.16 140.256 
Q 632.16 149.1264 647.784 149.1264 
z
" clip-path="url(#p37e7099616)" style="fill: #fff7ed; stroke: #c2410c; stroke-width: 1.8; stroke-linejoin: miter"/>
   </g>
   <g id="patch_8">
    <path d="M 147.816 299.9232 
L 241.56 299.9232 
Q 257.184 299.9232 257.184 291.0528 
L 257.184 237.8304 
Q 257.184 228.96 241.56 228.96 
L 147.816 228.96 
Q 132.192 228.96 132.192 237.8304 
L 132.192 291.0528 
Q 132.192 299.9232 147.816 299.9232 
z
" clip-path="url(#p37e7099616)" style="fill: #fef9c3; stroke: #a16207; stroke-width: 1.8; stroke-linejoin: miter"/>
   </g>
   <g id="patch_9">
    <path d="M 272.808 299.9232 
L 366.552 299.9232 
Q 382.176 299.9232 382.176 291.0528 
L 382.176 237.8304 
Q 382.176 228.96 366.552 228.96 
L 272.808 228.96 
Q 257.184 228.96 257.184 237.8304 
L 257.184 291.0528 
Q 257.184 299.9232 272.808 299.9232 
z
" clip-path="url(#p37e7099616)" style="fill: #fef9c3; stroke: #a16207; stroke-width: 1.8; stroke-linejoin: miter"/>
   </g>
   <g id="patch_10">
    <path d="M 397.8 299.9232 
L 491.544 299.9232 
Q 507.168 299.9232 507.168 291.0528 
L 507.168 237.8304 
Q 507.168 228.96 491.544 228.96 
L 397.8 228.96 
Q 382.176 228.96 382.176 237.8304 
L 382.176 291.0528 
Q 382.176 299.9232 397.8 299.9232 
z
" clip-path="url(#p37e7099616)" style="fill: #fef9c3; stroke: #a16207; stroke-width: 1.8; stroke-linejoin: miter"/>
   </g>
   <g id="patch_11">
    <path d="M 522.792 299.9232 
L 616.536 299.9232 
Q 632.16 299.9232 632.16 291.0528 
L 632.16 237.8304 
Q 632.16 228.96 616.536 228.96 
L 522.792 228.96 
Q 507.168 228.96 507.168 237.8304 
L 507.168 291.0528 
Q 507.168 299.9232 522.792 299.9232 
z
" clip-path="url(#p37e7099616)" style="fill: #ffedd5; stroke: #c2410c; stroke-width: 1.8; stroke-linejoin: miter"/>
   </g>
   <g id="patch_12">
    <path d="M 710.28 228.96 
L 764.964 264.4416 
L 710.28 299.9232 
L 655.596 264.4416 
z
" clip-path="url(#p37e7099616)" style="fill: #fff7ed; stroke: #b45309; stroke-width: 1.8; stroke-linejoin: miter"/>
   </g>
   <g id="patch_13">
    <path d="M 632.16 415.2384 
L 757.152 415.2384 
Q 772.776 415.2384 772.776 406.368 
L 772.776 362.016 
Q 772.776 353.1456 757.152 353.1456 
L 632.16 353.1456 
Q 616.536 353.1456 616.536 362.016 
L 616.536 406.368 
Q 616.536 415.2384 632.16 415.2384 
z
" clip-path="url(#p37e7099616)" style="fill: #fee2e2; stroke: #dc2626; stroke-width: 1.8; stroke-linejoin: miter"/>
   </g>
   <g id="patch_14">
    <path d="M 429.048 415.2384 
L 554.04 415.2384 
Q 569.664 415.2384 569.664 406.368 
L 569.664 362.016 
Q 569.664 353.1456 554.04 353.1456 
L 429.048 353.1456 
Q 413.424 353.1456 413.424 362.016 
L 413.424 406.368 
Q 413.424 415.2384 429.048 415.2384 
z
" clip-path="url(#p37e7099616)" style="fill: #fef08a; stroke: #ca8a04; stroke-width: 1.8; stroke-linejoin: miter"/>
   </g>
   <g id="patch_15">
    <path d="M 225.936 415.2384 
L 350.928 415.2384 
Q 366.552 415.2384 366.552 406.368 
L 366.552 362.016 
Q 366.552 353.1456 350.928 353.1456 
L 225.936 353.1456 
Q 210.312 353.1456 210.312 362.016 
L 210.312 406.368 
Q 210.312 415.2384 225.936 415.2384 
z
" clip-path="url(#p37e7099616)" style="fill: #dcfce7; stroke: #16a34a; stroke-width: 1.8; stroke-linejoin: miter"/>
   </g>
   <g id="text_1">
    <!-- Adaptive-OS System Architecture -->
    <g style="fill: #1f2937" transform="translate(227.671875 38.617987) scale(0.18 -0.18)">
     <defs>
      <path id="DejaVuSans-Bold-41" d="M 3419 850 
L 1538 850 
L 1241 0 
L 31 0 
L 1759 4666 
L 3194 4666 
L 4922 0 
L 3713 0 
L 3419 850 
z
M 1838 1716 
L 3116 1716 
L 2478 3572 
L 1838 1716 
z
" transform="scale(0.015625)"/>
      <path id="DejaVuSans-Bold-64" d="M 2919 2988 
L 2919 4863 
L 4044 4863 
L 4044 0 
L 2919 0 
L 2919 506 
Q 2688 197 2409 53 
Q 2131 -91 1766 -91 
Q 1119 -91 703 423 
Q 288 938 288 1747 
Q 288 2556 703 3070 
Q 1119 3584 1766 3584 
Q 2128 3584 2408 3439 
Q 2688 3294 2919 2988 
z
M 2181 722 
Q 2541 722 2730 984 
Q 2919 1247 2919 1747 
Q 2919 2247 2730 2509 
Q 2541 2772 2181 2772 
Q 1825 2772 1636 2509 
Q 1447 2247 1447 1747 
Q 1447 1247 1636 984 
Q 1825 722 2181 722 
z
" transform="scale(0.015625)"/>
      <path id="DejaVuSans-Bold-61" d="M 2106 1575 
Q 1756 1575 1579 1456 
Q 1403 1338 1403 1106 
Q 1403 894 1545 773 
Q 1688 653 1941 653 
Q 2256 653 2472 879 
Q 2688 1106 2688 1447 
L 2688 1575 
L 2106 1575 
z
M 3816 1997 
L 3816 0 
L 2688 0 
L 2688 519 
Q 2463 200 2181 54 
Q 1900 -91 1497 -91 
Q 953 -91 614 226 
Q 275 544 275 1050 
Q 275 1666 698 1953 
Q 1122 2241 2028 2241 
L 2688 2241 
L 2688 2328 
Q 2688 2594 2478 2717 
Q 2269 2841 1825 2841 
Q 1466 2841 1156 2769 
Q 847 2697 581 2553 
L 581 3406 
Q 941 3494 1303 3539 
Q 1666 3584 2028 3584 
Q 2975 3584 3395 3211 
Q 3816 2838 3816 1997 
z
" transform="scale(0.015625)"/>
      <path id="DejaVuSans-Bold-70" d="M 1656 506 
L 1656 -1331 
L 538 -1331 
L 538 3500 
L 1656 3500 
L 1656 2988 
Q 1888 3294 2169 3439 
Q 2450 3584 2816 3584 
Q 3463 3584 3878 3070 
Q 4294 2556 4294 1747 
Q 4294 938 3878 423 
Q 3463 -91 2816 -91 
Q 2450 -91 2169 54 
Q 1888 200 1656 506 
z
M 2400 2772 
Q 2041 2772 1848 2508 
Q 1656 2244 1656 1747 
Q 1656 1250 1848 986 
Q 2041 722 2400 722 
Q 2759 722 2948 984 
Q 3138 1247 3138 1747 
Q 3138 2247 2948 2509 
Q 2759 2772 2400 2772 
z
" transform="scale(0.015625)"/>
      <path id="DejaVuSans-Bold-74" d="M 1759 4494 
L 1759 3500 
L 2913 3500 
L 2913 2700 
L 1759 2700 
L 1759 1216 
Q 1759 972 1856 886 
Q 1953 800 2241 800 
L 2816 800 
L 2816 0 
L 1856 0 
Q 1194 0 917 276 
Q 641 553 641 1216 
L 641 2700 
L 84 2700 
L 84 3500 
L 641 3500 
L 641 4494 
L 1759 4494 
z
" transform="scale(0.015625)"/>
      <path id="DejaVuSans-Bold-69" d="M 538 3500 
L 1656 3500 
L 1656 0 
L 538 0 
L 538 3500 
z
M 538 4863 
L 1656 4863 
L 1656 3950 
L 538 3950 
L 538 4863 
z
" transform="scale(0.015625)"/>
      <path id="DejaVuSans-Bold-76" d="M 97 3500 
L 1216 3500 
L 2088 1081 
L 2956 3500 
L 4078 3500 
L 2700 0 
L 1472 0 
L 97 3500 
z
" transform="scale(0.015625)"/>
      <path id="DejaVuSans-Bold-65" d="M 4031 1759 
L 4031 1441 
L 1416 1441 
Q 1456 1047 1700 850 
Q 1944 653 2381 653 
Q 2734 653 3104 758 
Q 3475 863 3866 1075 
L 3866 213 
Q 3469 63 3072 -14 
Q 2675 -91 2278 -91 
Q 1328 -91 801 392 
Q 275 875 275 1747 
Q 275 2603 792 3093 
Q 1309 3584 2216 3584 
Q 3041 3584 3536 3087 
Q 4031 2591 4031 1759 
z
M 2881 2131 
Q 2881 2450 2695 2645 
Q 2509 2841 2209 2841 
Q 1884 2841 1681 2658 
Q 1478 2475 1428 2131 
L 2881 2131 
z
" transform="scale(0.015625)"/>
      <path id="DejaVuSans-Bold-2d" d="M 347 2297 
L 2309 2297 
L 2309 1388 
L 347 1388 
L 347 2297 
z
" transform="scale(0.015625)"/>
      <path id="DejaVuSans-Bold-4f" d="M 2719 3878 
Q 2169 3878 1866 3472 
Q 1563 3066 1563 2328 
Q 1563 1594 1866 1187 
Q 2169 781 2719 781 
Q 3272 781 3575 1187 
Q 3878 1594 3878 2328 
Q 3878 3066 3575 3472 
Q 3272 3878 2719 3878 
z
M 2719 4750 
Q 3844 4750 4481 4106 
Q 5119 3463 5119 2328 
Q 5119 1197 4481 553 
Q 3844 -91 2719 -91 
Q 1597 -91 958 553 
Q 319 1197 319 2328 
Q 319 3463 958 4106 
Q 1597 4750 2719 4750 
z
" transform="scale(0.015625)"/>
      <path id="DejaVuSans-Bold-53" d="M 3834 4519 
L 3834 3531 
Q 3450 3703 3084 3790 
Q 2719 3878 2394 3878 
Q 1963 3878 1756 3759 
Q 1550 3641 1550 3391 
Q 1550 3203 1689 3098 
Q 1828 2994 2194 2919 
L 2706 2816 
Q 3484 2659 3812 2340 
Q 4141 2022 4141 1434 
Q 4141 663 3683 286 
Q 3225 -91 2284 -91 
Q 1841 -91 1394 -6 
Q 947 78 500 244 
L 500 1259 
Q 947 1022 1364 901 
Q 1781 781 2169 781 
Q 2563 781 2772 912 
Q 2981 1044 2981 1288 
Q 2981 1506 2839 1625 
Q 2697 1744 2272 1838 
L 1806 1941 
Q 1106 2091 782 2419 
Q 459 2747 459 3303 
Q 459 4000 909 4375 
Q 1359 4750 2203 4750 
Q 2588 4750 2994 4692 
Q 3400 4634 3834 4519 
z
" transform="scale(0.015625)"/>
      <path id="DejaVuSans-Bold-20" transform="scale(0.015625)"/>
      <path id="DejaVuSans-Bold-79" d="M 78 3500 
L 1197 3500 
L 2138 1125 
L 2938 3500 
L 4056 3500 
L 2584 -331 
Q 2363 -916 2067 -1148 
Q 1772 -1381 1288 -1381 
L 641 -1381 
L 641 -647 
L 991 -647 
Q 1275 -647 1404 -556 
Q 1534 -466 1606 -231 
L 1638 -134 
L 78 3500 
z
" transform="scale(0.015625)"/>
      <path id="DejaVuSans-Bold-73" d="M 3272 3391 
L 3272 2541 
Q 2913 2691 2578 2766 
Q 2244 2841 1947 2841 
Q 1628 2841 1473 2761 
Q 1319 2681 1319 2516 
Q 1319 2381 1436 2309 
Q 1553 2238 1856 2203 
L 2053 2175 
Q 2913 2066 3209 1816 
Q 3506 1566 3506 1031 
Q 3506 472 3093 190 
Q 2681 -91 1863 -91 
Q 1516 -91 1145 -36 
Q 775 19 384 128 
L 384 978 
Q 719 816 1070 734 
Q 1422 653 1784 653 
Q 2113 653 2278 743 
Q 2444 834 2444 1013 
Q 2444 1163 2330 1236 
Q 2216 1309 1875 1350 
L 1678 1375 
Q 931 1469 631 1722 
Q 331 1975 331 2491 
Q 331 3047 712 3315 
Q 1094 3584 1881 3584 
Q 2191 3584 2531 3537 
Q 2872 3491 3272 3391 
z
" transform="scale(0.015625)"/>
      <path id="DejaVuSans-Bold-6d" d="M 3781 2919 
Q 3994 3244 4286 3414 
Q 4578 3584 4928 3584 
Q 5531 3584 5847 3212 
Q 6163 2841 6163 2131 
L 6163 0 
L 5038 0 
L 5038 1825 
Q 5041 1866 5042 1909 
Q 5044 1953 5044 2034 
Q 5044 2406 4934 2573 
Q 4825 2741 4581 2741 
Q 4263 2741 4089 2478 
Q 3916 2216 3909 1719 
L 3909 0 
L 2784 0 
L 2784 1825 
Q 2784 2406 2684 2573 
Q 2584 2741 2328 2741 
Q 2006 2741 1831 2477 
Q 1656 2213 1656 1722 
L 1656 0 
L 531 0 
L 531 3500 
L 1656 3500 
L 1656 2988 
Q 1863 3284 2130 3434 
Q 2397 3584 2719 3584 
Q 3081 3584 3359 3409 
Q 3638 3234 3781 2919 
z
" transform="scale(0.015625)"/>
      <path id="DejaVuSans-Bold-72" d="M 3138 2547 
Q 2991 2616 2845 2648 
Q 2700 2681 2553 2681 
Q 2122 2681 1889 2404 
Q 1656 2128 1656 1613 
L 1656 0 
L 538 0 
L 538 3500 
L 1656 3500 
L 1656 2925 
Q 1872 3269 2151 3426 
Q 2431 3584 2822 3584 
Q 2878 3584 2943 3579 
Q 3009 3575 3134 3559 
L 3138 2547 
z
" transform="scale(0.015625)"/>
      <path id="DejaVuSans-Bold-63" d="M 3366 3391 
L 3366 2478 
Q 3138 2634 2908 2709 
Q 2678 2784 2431 2784 
Q 1963 2784 1702 2511 
Q 1441 2238 1441 1747 
Q 1441 1256 1702 982 
Q 1963 709 2431 709 
Q 2694 709 2930 787 
Q 3166 866 3366 1019 
L 3366 103 
Q 3103 6 2833 -42 
Q 2563 -91 2291 -91 
Q 1344 -91 809 395 
Q 275 881 275 1747 
Q 275 2613 809 3098 
Q 1344 3584 2291 3584 
Q 2566 3584 2833 3536 
Q 3100 3488 3366 3391 
z
" transform="scale(0.015625)"/>
      <path id="DejaVuSans-Bold-68" d="M 4056 2131 
L 4056 0 
L 2931 0 
L 2931 347 
L 2931 1625 
Q 2931 2084 2911 2256 
Q 2891 2428 2841 2509 
Q 2775 2619 2662 2680 
Q 2550 2741 2406 2741 
Q 2056 2741 1856 2470 
Q 1656 2200 1656 1722 
L 1656 0 
L 538 0 
L 538 4863 
L 1656 4863 
L 1656 2988 
Q 1909 3294 2193 3439 
Q 2478 3584 2822 3584 
Q 3428 3584 3742 3212 
Q 4056 2841 4056 2131 
z
" transform="scale(0.015625)"/>
      <path id="DejaVuSans-Bold-75" d="M 500 1363 
L 500 3500 
L 1625 3500 
L 1625 3150 
Q 1625 2866 1622 2436 
Q 1619 2006 1619 1863 
Q 1619 1441 1641 1255 
Q 1663 1069 1716 984 
Q 1784 875 1895 815 
Q 2006 756 2150 756 
Q 2500 756 2700 1025 
Q 2900 1294 2900 1772 
L 2900 3500 
L 4019 3500 
L 4019 0 
L 2900 0 
L 2900 506 
Q 2647 200 2364 54 
Q 2081 -91 1741 -91 
Q 1134 -91 817 281 
Q 500 653 500 1363 
z
" transform="scale(0.015625)"/>
     </defs>
     <use xlink:href="#DejaVuSans-Bold-41"/>
     <use xlink:href="#DejaVuSans-Bold-64" transform="translate(77.392578 0)"/>
     <use xlink:href="#DejaVuSans-Bold-61" transform="translate(148.974609 0)"/>
     <use xlink:href="#DejaVuSans-Bold-70" transform="translate(216.455078 0)"/>
     <use xlink:href="#DejaVuSans-Bold-74" transform="translate(288.037109 0)"/>
     <use xlink:href="#DejaVuSans-Bold-69" transform="translate(335.839844 0)"/>
     <use xlink:href="#DejaVuSans-Bold-76" transform="translate(370.117188 0)"/>
     <use xlink:href="#DejaVuSans-Bold-65" transform="translate(435.302734 0)"/>
     <use xlink:href="#DejaVuSans-Bold-2d" transform="translate(503.125 0)"/>
     <use xlink:href="#DejaVuSans-Bold-4f" transform="translate(544.628906 0)"/>
     <use xlink:href="#DejaVuSans-Bold-53" transform="translate(629.638672 0)"/>
     <use xlink:href="#DejaVuSans-Bold-20" transform="translate(701.660156 0)"/>
     <use xlink:href="#DejaVuSans-Bold-53" transform="translate(736.474609 0)"/>
     <use xlink:href="#DejaVuSans-Bold-79" transform="translate(808.496094 0)"/>
     <use xlink:href="#DejaVuSans-Bold-73" transform="translate(873.681641 0)"/>
     <use xlink:href="#DejaVuSans-Bold-74" transform="translate(933.203125 0)"/>
     <use xlink:href="#DejaVuSans-Bold-65" transform="translate(981.005859 0)"/>
     <use xlink:href="#DejaVuSans-Bold-6d" transform="translate(1048.828125 0)"/>
     <use xlink:href="#DejaVuSans-Bold-20" transform="translate(1153.027344 0)"/>
     <use xlink:href="#DejaVuSans-Bold-41" transform="translate(1187.841797 0)"/>
     <use xlink:href="#DejaVuSans-Bold-72" transform="translate(1265.234375 0)"/>
     <use xlink:href="#DejaVuSans-Bold-63" transform="translate(1314.550781 0)"/>
     <use xlink:href="#DejaVuSans-Bold-68" transform="translate(1373.828125 0)"/>
     <use xlink:href="#DejaVuSans-Bold-69" transform="translate(1445.019531 0)"/>
     <use xlink:href="#DejaVuSans-Bold-74" transform="translate(1479.296875 0)"/>
     <use xlink:href="#DejaVuSans-Bold-65" transform="translate(1527.099609 0)"/>
     <use xlink:href="#DejaVuSans-Bold-63" transform="translate(1594.921875 0)"/>
     <use xlink:href="#DejaVuSans-Bold-74" transform="translate(1654.199219 0)"/>
     <use xlink:href="#DejaVuSans-Bold-75" transform="translate(1702.001953 0)"/>
     <use xlink:href="#DejaVuSans-Bold-72" transform="translate(1773.193359 0)"/>
     <use xlink:href="#DejaVuSans-Bold-65" transform="translate(1822.509766 0)"/>
    </g>
   </g>
   <g id="text_2">
    <!-- User Activity -->
    <g style="fill: #111827" transform="translate(38.749188 110.521316) scale(0.11 -0.11)">
     <defs>
      <path id="DejaVuSans-55" d="M 556 4666 
L 1191 4666 
L 1191 1831 
Q 1191 1081 1462 751 
Q 1734 422 2344 422 
Q 2950 422 3222 751 
Q 3494 1081 3494 1831 
L 3494 4666 
L 4128 4666 
L 4128 1753 
Q 4128 841 3676 375 
Q 3225 -91 2344 -91 
Q 1459 -91 1007 375 
Q 556 841 556 1753 
L 556 4666 
z
" transform="scale(0.015625)"/>
      <path id="DejaVuSans-73" d="M 2834 3397 
L 2834 2853 
Q 2591 2978 2328 3040 
Q 2066 3103 1784 3103 
Q 1356 3103 1142 2972 
Q 928 2841 928 2578 
Q 928 2378 1081 2264 
Q 1234 2150 1697 2047 
L 1894 2003 
Q 2506 1872 2764 1633 
Q 3022 1394 3022 966 
Q 3022 478 2636 193 
Q 2250 -91 1575 -91 
Q 1294 -91 989 -36 
Q 684 19 347 128 
L 347 722 
Q 666 556 975 473 
Q 1284 391 1588 391 
Q 1994 391 2212 530 
Q 2431 669 2431 922 
Q 2431 1156 2273 1281 
Q 2116 1406 1581 1522 
L 1381 1569 
Q 847 1681 609 1914 
Q 372 2147 372 2553 
Q 372 3047 722 3315 
Q 1072 3584 1716 3584 
Q 2034 3584 2315 3537 
Q 2597 3491 2834 3397 
z
" transform="scale(0.015625)"/>
      <path id="DejaVuSans-65" d="M 3597 1894 
L 3597 1613 
L 953 1613 
Q 991 1019 1311 708 
Q 1631 397 2203 397 
Q 2534 397 2845 478 
Q 3156 559 3463 722 
L 3463 178 
Q 3153 47 2828 -22 
Q 2503 -91 2169 -91 
Q 1331 -91 842 396 
Q 353 884 353 1716 
Q 353 2575 817 3079 
Q 1281 3584 2069 3584 
Q 2775 3584 3186 3129 
Q 3597 2675 3597 1894 
z
M 3022 2063 
Q 3016 2534 2758 2815 
Q 2500 3097 2075 3097 
Q 1594 3097 1305 2825 
Q 1016 2553 972 2059 
L 3022 2063 
z
" transform="scale(0.015625)"/>
      <path id="DejaVuSans-72" d="M 2631 2963 
Q 2534 3019 2420 3045 
Q 2306 3072 2169 3072 
Q 1681 3072 1420 2755 
Q 1159 2438 1159 1844 
L 1159 0 
L 581 0 
L 581 3500 
L 1159 3500 
L 1159 2956 
Q 1341 3275 1631 3429 
Q 1922 3584 2338 3584 
Q 2397 3584 2469 3576 
Q 2541 3569 2628 3553 
L 2631 2963 
z
" transform="scale(0.015625)"/>
      <path id="DejaVuSans-20" transform="scale(0.015625)"/>
      <path id="DejaVuSans-41" d="M 2188 4044 
L 1331 1722 
L 3047 1722 
L 2188 4044 
z
M 1831 4666 
L 2547 4666 
L 4325 0 
L 3669 0 
L 3244 1197 
L 1141 1197 
L 716 0 
L 50 0 
L 1831 4666 
z
" transform="scale(0.015625)"/>
      <path id="DejaVuSans-63" d="M 3122 3366 
L 3122 2828 
Q 2878 2963 2633 3030 
Q 2388 3097 2138 3097 
Q 1578 3097 1268 2742 
Q 959 2388 959 1747 
Q 959 1106 1268 751 
Q 1578 397 2138 397 
Q 2388 397 2633 464 
Q 2878 531 3122 666 
L 3122 134 
Q 2881 22 2623 -34 
Q 2366 -91 2075 -91 
Q 1284 -91 818 406 
Q 353 903 353 1747 
Q 353 2603 823 3093 
Q 1294 3584 2113 3584 
Q 2378 3584 2631 3529 
Q 2884 3475 3122 3366 
z
" transform="scale(0.015625)"/>
      <path id="DejaVuSans-74" d="M 1172 4494 
L 1172 3500 
L 2356 3500 
L 2356 3053 
L 1172 3053 
L 1172 1153 
Q 1172 725 1289 603 
Q 1406 481 1766 481 
L 2356 481 
L 2356 0 
L 1766 0 
Q 1100 0 847 248 
Q 594 497 594 1153 
L 594 3053 
L 172 3053 
L 172 3500 
L 594 3500 
L 594 4494 
L 1172 4494 
z
" transform="scale(0.015625)"/>
      <path id="DejaVuSans-69" d="M 603 3500 
L 1178 3500 
L 1178 0 
L 603 0 
L 603 3500 
z
M 603 4863 
L 1178 4863 
L 1178 4134 
L 603 4134 
L 603 4863 
z
" transform="scale(0.015625)"/>
      <path id="DejaVuSans-76" d="M 191 3500 
L 800 3500 
L 1894 563 
L 2988 3500 
L 3597 3500 
L 2284 0 
L 1503 0 
L 191 3500 
z
" transform="scale(0.015625)"/>
      <path id="DejaVuSans-79" d="M 2059 -325 
Q 1816 -950 1584 -1140 
Q 1353 -1331 966 -1331 
L 506 -1331 
L 506 -850 
L 844 -850 
Q 1081 -850 1212 -737 
Q 1344 -625 1503 -206 
L 1606 56 
L 191 3500 
L 800 3500 
L 1894 763 
L 2988 3500 
L 3597 3500 
L 2059 -325 
z
" transform="scale(0.015625)"/>
     </defs>
     <use xlink:href="#DejaVuSans-55"/>
     <use xlink:href="#DejaVuSans-73" transform="translate(73.193359 0)"/>
     <use xlink:href="#DejaVuSans-65" transform="translate(125.292969 0)"/>
     <use xlink:href="#DejaVuSans-72" transform="translate(186.816406 0)"/>
     <use xlink:href="#DejaVuSans-20" transform="translate(227.929688 0)"/>
     <use xlink:href="#DejaVuSans-41" transform="translate(259.716797 0)"/>
     <use xlink:href="#DejaVuSans-63" transform="translate(326.375 0)"/>
     <use xlink:href="#DejaVuSans-74" transform="translate(381.355469 0)"/>
     <use xlink:href="#DejaVuSans-69" transform="translate(420.564453 0)"/>
     <use xlink:href="#DejaVuSans-76" transform="translate(448.347656 0)"/>
     <use xlink:href="#DejaVuSans-69" transform="translate(507.527344 0)"/>
     <use xlink:href="#DejaVuSans-74" transform="translate(535.310547 0)"/>
     <use xlink:href="#DejaVuSans-79" transform="translate(574.519531 0)"/>
    </g>
    <!-- System State -->
    <g style="fill: #111827" transform="translate(36.785516 122.838909) scale(0.11 -0.11)">
     <defs>
      <path id="DejaVuSans-53" d="M 3425 4513 
L 3425 3897 
Q 3066 4069 2747 4153 
Q 2428 4238 2131 4238 
Q 1616 4238 1336 4038 
Q 1056 3838 1056 3469 
Q 1056 3159 1242 3001 
Q 1428 2844 1947 2747 
L 2328 2669 
Q 3034 2534 3370 2195 
Q 3706 1856 3706 1288 
Q 3706 609 3251 259 
Q 2797 -91 1919 -91 
Q 1588 -91 1214 -16 
Q 841 59 441 206 
L 441 856 
Q 825 641 1194 531 
Q 1563 422 1919 422 
Q 2459 422 2753 634 
Q 3047 847 3047 1241 
Q 3047 1584 2836 1778 
Q 2625 1972 2144 2069 
L 1759 2144 
Q 1053 2284 737 2584 
Q 422 2884 422 3419 
Q 422 4038 858 4394 
Q 1294 4750 2059 4750 
Q 2388 4750 2728 4690 
Q 3069 4631 3425 4513 
z
" transform="scale(0.015625)"/>
      <path id="DejaVuSans-6d" d="M 3328 2828 
Q 3544 3216 3844 3400 
Q 4144 3584 4550 3584 
Q 5097 3584 5394 3201 
Q 5691 2819 5691 2113 
L 5691 0 
L 5113 0 
L 5113 2094 
Q 5113 2597 4934 2840 
Q 4756 3084 4391 3084 
Q 3944 3084 3684 2787 
Q 3425 2491 3425 1978 
L 3425 0 
L 2847 0 
L 2847 2094 
Q 2847 2600 2669 2842 
Q 2491 3084 2119 3084 
Q 1678 3084 1418 2786 
Q 1159 2488 1159 1978 
L 1159 0 
L 581 0 
L 581 3500 
L 1159 3500 
L 1159 2956 
Q 1356 3278 1631 3431 
Q 1906 3584 2284 3584 
Q 2666 3584 2933 3390 
Q 3200 3197 3328 2828 
z
" transform="scale(0.015625)"/>
      <path id="DejaVuSans-61" d="M 2194 1759 
Q 1497 1759 1228 1600 
Q 959 1441 959 1056 
Q 959 750 1161 570 
Q 1363 391 1709 391 
Q 2188 391 2477 730 
Q 2766 1069 2766 1631 
L 2766 1759 
L 2194 1759 
z
M 3341 1997 
L 3341 0 
L 2766 0 
L 2766 531 
Q 2569 213 2275 61 
Q 1981 -91 1556 -91 
Q 1019 -91 701 211 
Q 384 513 384 1019 
Q 384 1609 779 1909 
Q 1175 2209 1959 2209 
L 2766 2209 
L 2766 2266 
Q 2766 2663 2505 2880 
Q 2244 3097 1772 3097 
Q 1472 3097 1187 3025 
Q 903 2953 641 2809 
L 641 3341 
Q 956 3463 1253 3523 
Q 1550 3584 1831 3584 
Q 2591 3584 2966 3190 
Q 3341 2797 3341 1997 
z
" transform="scale(0.015625)"/>
     </defs>
     <use xlink:href="#DejaVuSans-53"/>
     <use xlink:href="#DejaVuSans-79" transform="translate(63.476562 0)"/>
     <use xlink:href="#DejaVuSans-73" transform="translate(122.65625 0)"/>
     <use xlink:href="#DejaVuSans-74" transform="translate(174.755859 0)"/>
     <use xlink:href="#DejaVuSans-65" transform="translate(213.964844 0)"/>
     <use xlink:href="#DejaVuSans-6d" transform="translate(275.488281 0)"/>
     <use xlink:href="#DejaVuSans-20" transform="translate(372.900391 0)"/>
     <use xlink:href="#DejaVuSans-53" transform="translate(404.6875 0)"/>
     <use xlink:href="#DejaVuSans-74" transform="translate(468.164062 0)"/>
     <use xlink:href="#DejaVuSans-61" transform="translate(507.373047 0)"/>
     <use xlink:href="#DejaVuSans-74" transform="translate(568.652344 0)"/>
     <use xlink:href="#DejaVuSans-65" transform="translate(607.861328 0)"/>
    </g>
   </g>
   <g id="text_3">
    <!-- Telemetry -->
    <g style="fill: #111827" transform="translate(167.553234 110.521316) scale(0.11 -0.11)">
     <defs>
      <path id="DejaVuSans-54" d="M -19 4666 
L 3928 4666 
L 3928 4134 
L 2272 4134 
L 2272 0 
L 1638 0 
L 1638 4134 
L -19 4134 
L -19 4666 
z
" transform="scale(0.015625)"/>
      <path id="DejaVuSans-6c" d="M 603 4863 
L 1178 4863 
L 1178 0 
L 603 0 
L 603 4863 
z
" transform="scale(0.015625)"/>
     </defs>
     <use xlink:href="#DejaVuSans-54"/>
     <use xlink:href="#DejaVuSans-65" transform="translate(44.083984 0)"/>
     <use xlink:href="#DejaVuSans-6c" transform="translate(105.607422 0)"/>
     <use xlink:href="#DejaVuSans-65" transform="translate(133.390625 0)"/>
     <use xlink:href="#DejaVuSans-6d" transform="translate(194.914062 0)"/>
     <use xlink:href="#DejaVuSans-65" transform="translate(292.326172 0)"/>
     <use xlink:href="#DejaVuSans-74" transform="translate(353.849609 0)"/>
     <use xlink:href="#DejaVuSans-72" transform="translate(393.058594 0)"/>
     <use xlink:href="#DejaVuSans-79" transform="translate(434.171875 0)"/>
    </g>
    <!-- Collector -->
    <g style="fill: #111827" transform="translate(170.235344 122.838909) scale(0.11 -0.11)">
     <defs>
      <path id="DejaVuSans-43" d="M 4122 4306 
L 4122 3641 
Q 3803 3938 3442 4084 
Q 3081 4231 2675 4231 
Q 1875 4231 1450 3742 
Q 1025 3253 1025 2328 
Q 1025 1406 1450 917 
Q 1875 428 2675 428 
Q 3081 428 3442 575 
Q 3803 722 4122 1019 
L 4122 359 
Q 3791 134 3420 21 
Q 3050 -91 2638 -91 
Q 1578 -91 968 557 
Q 359 1206 359 2328 
Q 359 3453 968 4101 
Q 1578 4750 2638 4750 
Q 3056 4750 3426 4639 
Q 3797 4528 4122 4306 
z
" transform="scale(0.015625)"/>
      <path id="DejaVuSans-6f" d="M 1959 3097 
Q 1497 3097 1228 2736 
Q 959 2375 959 1747 
Q 959 1119 1226 758 
Q 1494 397 1959 397 
Q 2419 397 2687 759 
Q 2956 1122 2956 1747 
Q 2956 2369 2687 2733 
Q 2419 3097 1959 3097 
z
M 1959 3584 
Q 2709 3584 3137 3096 
Q 3566 2609 3566 1747 
Q 3566 888 3137 398 
Q 2709 -91 1959 -91 
Q 1206 -91 779 398 
Q 353 888 353 1747 
Q 353 2609 779 3096 
Q 1206 3584 1959 3584 
z
" transform="scale(0.015625)"/>
     </defs>
     <use xlink:href="#DejaVuSans-43"/>
     <use xlink:href="#DejaVuSans-6f" transform="translate(69.824219 0)"/>
     <use xlink:href="#DejaVuSans-6c" transform="translate(131.005859 0)"/>
     <use xlink:href="#DejaVuSans-6c" transform="translate(158.789062 0)"/>
     <use xlink:href="#DejaVuSans-65" transform="translate(186.572266 0)"/>
     <use xlink:href="#DejaVuSans-63" transform="translate(248.095703 0)"/>
     <use xlink:href="#DejaVuSans-74" transform="translate(303.076172 0)"/>
     <use xlink:href="#DejaVuSans-6f" transform="translate(342.285156 0)"/>
     <use xlink:href="#DejaVuSans-72" transform="translate(403.466797 0)"/>
    </g>
   </g>
   <g id="text_4">
    <!-- Preprocess -->
    <g style="fill: #111827" transform="translate(289.805547 110.521316) scale(0.11 -0.11)">
     <defs>
      <path id="DejaVuSans-50" d="M 1259 4147 
L 1259 2394 
L 2053 2394 
Q 2494 2394 2734 2622 
Q 2975 2850 2975 3272 
Q 2975 3691 2734 3919 
Q 2494 4147 2053 4147 
L 1259 4147 
z
M 628 4666 
L 2053 4666 
Q 2838 4666 3239 4311 
Q 3641 3956 3641 3272 
Q 3641 2581 3239 2228 
Q 2838 1875 2053 1875 
L 1259 1875 
L 1259 0 
L 628 0 
L 628 4666 
z
" transform="scale(0.015625)"/>
      <path id="DejaVuSans-70" d="M 1159 525 
L 1159 -1331 
L 581 -1331 
L 581 3500 
L 1159 3500 
L 1159 2969 
Q 1341 3281 1617 3432 
Q 1894 3584 2278 3584 
Q 2916 3584 3314 3078 
Q 3713 2572 3713 1747 
Q 3713 922 3314 415 
Q 2916 -91 2278 -91 
Q 1894 -91 1617 61 
Q 1341 213 1159 525 
z
M 3116 1747 
Q 3116 2381 2855 2742 
Q 2594 3103 2138 3103 
Q 1681 3103 1420 2742 
Q 1159 2381 1159 1747 
Q 1159 1113 1420 752 
Q 1681 391 2138 391 
Q 2594 391 2855 752 
Q 3116 1113 3116 1747 
z
" transform="scale(0.015625)"/>
     </defs>
     <use xlink:href="#DejaVuSans-50"/>
     <use xlink:href="#DejaVuSans-72" transform="translate(58.552734 0)"/>
     <use xlink:href="#DejaVuSans-65" transform="translate(97.416016 0)"/>
     <use xlink:href="#DejaVuSans-70" transform="translate(158.939453 0)"/>
     <use xlink:href="#DejaVuSans-72" transform="translate(222.416016 0)"/>
     <use xlink:href="#DejaVuSans-6f" transform="translate(261.279297 0)"/>
     <use xlink:href="#DejaVuSans-63" transform="translate(322.460938 0)"/>
     <use xlink:href="#DejaVuSans-65" transform="translate(377.441406 0)"/>
     <use xlink:href="#DejaVuSans-73" transform="translate(438.964844 0)"/>
     <use xlink:href="#DejaVuSans-73" transform="translate(491.064453 0)"/>
    </g>
    <!-- Features -->
    <g style="fill: #111827" transform="translate(296.036016 122.838909) scale(0.11 -0.11)">
     <defs>
      <path id="DejaVuSans-46" d="M 628 4666 
L 3309 4666 
L 3309 4134 
L 1259 4134 
L 1259 2759 
L 3109 2759 
L 3109 2228 
L 1259 2228 
L 1259 0 
L 628 0 
L 628 4666 
z
" transform="scale(0.015625)"/>
      <path id="DejaVuSans-75" d="M 544 1381 
L 544 3500 
L 1119 3500 
L 1119 1403 
Q 1119 906 1312 657 
Q 1506 409 1894 409 
Q 2359 409 2629 706 
Q 2900 1003 2900 1516 
L 2900 3500 
L 3475 3500 
L 3475 0 
L 2900 0 
L 2900 538 
Q 2691 219 2414 64 
Q 2138 -91 1772 -91 
Q 1169 -91 856 284 
Q 544 659 544 1381 
z
M 1991 3584 
L 1991 3584 
z
" transform="scale(0.015625)"/>
     </defs>
     <use xlink:href="#DejaVuSans-46"/>
     <use xlink:href="#DejaVuSans-65" transform="translate(52.019531 0)"/>
     <use xlink:href="#DejaVuSans-61" transform="translate(113.542969 0)"/>
     <use xlink:href="#DejaVuSans-74" transform="translate(174.822266 0)"/>
     <use xlink:href="#DejaVuSans-75" transform="translate(214.03125 0)"/>
     <use xlink:href="#DejaVuSans-72" transform="translate(277.410156 0)"/>
     <use xlink:href="#DejaVuSans-65" transform="translate(316.273438 0)"/>
     <use xlink:href="#DejaVuSans-73" transform="translate(377.796875 0)"/>
    </g>
   </g>
   <g id="text_5">
    <!-- Sequence -->
    <g style="fill: #111827" transform="translate(417.540672 110.521316) scale(0.11 -0.11)">
     <defs>
      <path id="DejaVuSans-71" d="M 947 1747 
Q 947 1113 1208 752 
Q 1469 391 1925 391 
Q 2381 391 2643 752 
Q 2906 1113 2906 1747 
Q 2906 2381 2643 2742 
Q 2381 3103 1925 3103 
Q 1469 3103 1208 2742 
Q 947 2381 947 1747 
z
M 2906 525 
Q 2725 213 2448 61 
Q 2172 -91 1784 -91 
Q 1150 -91 751 415 
Q 353 922 353 1747 
Q 353 2572 751 3078 
Q 1150 3584 1784 3584 
Q 2172 3584 2448 3432 
Q 2725 3281 2906 2969 
L 2906 3500 
L 3481 3500 
L 3481 -1331 
L 2906 -1331 
L 2906 525 
z
" transform="scale(0.015625)"/>
      <path id="DejaVuSans-6e" d="M 3513 2113 
L 3513 0 
L 2938 0 
L 2938 2094 
Q 2938 2591 2744 2837 
Q 2550 3084 2163 3084 
Q 1697 3084 1428 2787 
Q 1159 2491 1159 1978 
L 1159 0 
L 581 0 
L 581 3500 
L 1159 3500 
L 1159 2956 
Q 1366 3272 1645 3428 
Q 1925 3584 2291 3584 
Q 2894 3584 3203 3211 
Q 3513 2838 3513 2113 
z
" transform="scale(0.015625)"/>
     </defs>
     <use xlink:href="#DejaVuSans-53"/>
     <use xlink:href="#DejaVuSans-65" transform="translate(63.476562 0)"/>
     <use xlink:href="#DejaVuSans-71" transform="translate(125 0)"/>
     <use xlink:href="#DejaVuSans-75" transform="translate(188.476562 0)"/>
     <use xlink:href="#DejaVuSans-65" transform="translate(251.855469 0)"/>
     <use xlink:href="#DejaVuSans-6e" transform="translate(313.378906 0)"/>
     <use xlink:href="#DejaVuSans-63" transform="translate(376.757812 0)"/>
     <use xlink:href="#DejaVuSans-65" transform="translate(431.738281 0)"/>
    </g>
    <!-- Buffer -->
    <g style="fill: #111827" transform="translate(427.895281 122.838909) scale(0.11 -0.11)">
     <defs>
      <path id="DejaVuSans-42" d="M 1259 2228 
L 1259 519 
L 2272 519 
Q 2781 519 3026 730 
Q 3272 941 3272 1375 
Q 3272 1813 3026 2020 
Q 2781 2228 2272 2228 
L 1259 2228 
z
M 1259 4147 
L 1259 2741 
L 2194 2741 
Q 2656 2741 2882 2914 
Q 3109 3088 3109 3444 
Q 3109 3797 2882 3972 
Q 2656 4147 2194 4147 
L 1259 4147 
z
M 628 4666 
L 2241 4666 
Q 2963 4666 3353 4366 
Q 3744 4066 3744 3513 
Q 3744 3084 3544 2831 
Q 3344 2578 2956 2516 
Q 3422 2416 3680 2098 
Q 3938 1781 3938 1306 
Q 3938 681 3513 340 
Q 3088 0 2303 0 
L 628 0 
L 628 4666 
z
" transform="scale(0.015625)"/>
      <path id="DejaVuSans-66" d="M 2375 4863 
L 2375 4384 
L 1825 4384 
Q 1516 4384 1395 4259 
Q 1275 4134 1275 3809 
L 1275 3500 
L 2222 3500 
L 2222 3053 
L 1275 3053 
L 1275 0 
L 697 0 
L 697 3053 
L 147 3053 
L 147 3500 
L 697 3500 
L 697 3744 
Q 697 4328 969 4595 
Q 1241 4863 1831 4863 
L 2375 4863 
z
" transform="scale(0.015625)"/>
     </defs>
     <use xlink:href="#DejaVuSans-42"/>
     <use xlink:href="#DejaVuSans-75" transform="translate(68.603516 0)"/>
     <use xlink:href="#DejaVuSans-66" transform="translate(131.982422 0)"/>
     <use xlink:href="#DejaVuSans-66" transform="translate(167.1875 0)"/>
     <use xlink:href="#DejaVuSans-65" transform="translate(202.392578 0)"/>
     <use xlink:href="#DejaVuSans-72" transform="translate(263.916016 0)"/>
    </g>
   </g>
   <g id="text_6">
    <!-- LSTM -->
    <g style="fill: #111827" transform="translate(555.003063 110.521316) scale(0.11 -0.11)">
     <defs>
      <path id="DejaVuSans-4c" d="M 628 4666 
L 1259 4666 
L 1259 531 
L 3531 531 
L 3531 0 
L 628 0 
L 628 4666 
z
" transform="scale(0.015625)"/>
      <path id="DejaVuSans-4d" d="M 628 4666 
L 1569 4666 
L 2759 1491 
L 3956 4666 
L 4897 4666 
L 4897 0 
L 4281 0 
L 4281 4097 
L 3078 897 
L 2444 897 
L 1241 4097 
L 1241 0 
L 628 0 
L 628 4666 
z
" transform="scale(0.015625)"/>
     </defs>
     <use xlink:href="#DejaVuSans-4c"/>
     <use xlink:href="#DejaVuSans-53" transform="translate(55.712891 0)"/>
     <use xlink:href="#DejaVuSans-54" transform="translate(119.189453 0)"/>
     <use xlink:href="#DejaVuSans-4d" transform="translate(180.273438 0)"/>
    </g>
    <!-- Model -->
    <g style="fill: #111827" transform="translate(553.149391 122.838909) scale(0.11 -0.11)">
     <defs>
      <path id="DejaVuSans-64" d="M 2906 2969 
L 2906 4863 
L 3481 4863 
L 3481 0 
L 2906 0 
L 2906 525 
Q 2725 213 2448 61 
Q 2172 -91 1784 -91 
Q 1150 -91 751 415 
Q 353 922 353 1747 
Q 353 2572 751 3078 
Q 1150 3584 1784 3584 
Q 2172 3584 2448 3432 
Q 2725 3281 2906 2969 
z
M 947 1747 
Q 947 1113 1208 752 
Q 1469 391 1925 391 
Q 2381 391 2643 752 
Q 2906 1113 2906 1747 
Q 2906 2381 2643 2742 
Q 2381 3103 1925 3103 
Q 1469 3103 1208 2742 
Q 947 2381 947 1747 
z
" transform="scale(0.015625)"/>
     </defs>
     <use xlink:href="#DejaVuSans-4d"/>
     <use xlink:href="#DejaVuSans-6f" transform="translate(86.279297 0)"/>
     <use xlink:href="#DejaVuSans-64" transform="translate(147.460938 0)"/>
     <use xlink:href="#DejaVuSans-65" transform="translate(210.9375 0)"/>
     <use xlink:href="#DejaVuSans-6c" transform="translate(272.460938 0)"/>
    </g>
   </g>
   <g id="text_7">
    <!-- Base Risk -->
    <g style="fill: #111827" transform="translate(679.833062 110.521316) scale(0.11 -0.11)">
     <defs>
      <path id="DejaVuSans-52" d="M 2841 2188 
Q 3044 2119 3236 1894 
Q 3428 1669 3622 1275 
L 4263 0 
L 3584 0 
L 2988 1197 
Q 2756 1666 2539 1819 
Q 2322 1972 1947 1972 
L 1259 1972 
L 1259 0 
L 628 0 
L 628 4666 
L 2053 4666 
Q 2853 4666 3247 4331 
Q 3641 3997 3641 3322 
Q 3641 2881 3436 2590 
Q 3231 2300 2841 2188 
z
M 1259 4147 
L 1259 2491 
L 2053 2491 
Q 2509 2491 2742 2702 
Q 2975 2913 2975 3322 
Q 2975 3731 2742 3939 
Q 2509 4147 2053 4147 
L 1259 4147 
z
" transform="scale(0.015625)"/>
      <path id="DejaVuSans-6b" d="M 581 4863 
L 1159 4863 
L 1159 1991 
L 2875 3500 
L 3609 3500 
L 1753 1863 
L 3688 0 
L 2938 0 
L 1159 1709 
L 1159 0 
L 581 0 
L 581 4863 
z
" transform="scale(0.015625)"/>
     </defs>
     <use xlink:href="#DejaVuSans-42"/>
     <use xlink:href="#DejaVuSans-61" transform="translate(68.603516 0)"/>
     <use xlink:href="#DejaVuSans-73" transform="translate(129.882812 0)"/>
     <use xlink:href="#DejaVuSans-65" transform="translate(181.982422 0)"/>
     <use xlink:href="#DejaVuSans-20" transform="translate(243.505859 0)"/>
     <use xlink:href="#DejaVuSans-52" transform="translate(275.292969 0)"/>
     <use xlink:href="#DejaVuSans-69" transform="translate(344.775391 0)"/>
     <use xlink:href="#DejaVuSans-73" transform="translate(372.558594 0)"/>
     <use xlink:href="#DejaVuSans-6b" transform="translate(424.658203 0)"/>
    </g>
    <!-- Score -->
    <g style="fill: #111827" transform="translate(690.971422 122.838909) scale(0.11 -0.11)">
     <use xlink:href="#DejaVuSans-53"/>
     <use xlink:href="#DejaVuSans-63" transform="translate(63.476562 0)"/>
     <use xlink:href="#DejaVuSans-6f" transform="translate(118.457031 0)"/>
     <use xlink:href="#DejaVuSans-72" transform="translate(179.638672 0)"/>
     <use xlink:href="#DejaVuSans-65" transform="translate(218.501953 0)"/>
    </g>
   </g>
   <g id="text_8">
    <!-- Behavior -->
    <g style="fill: #111827" transform="translate(170.264562 261.318116) scale(0.11 -0.11)">
     <defs>
      <path id="DejaVuSans-68" d="M 3513 2113 
L 3513 0 
L 2938 0 
L 2938 2094 
Q 2938 2591 2744 2837 
Q 2550 3084 2163 3084 
Q 1697 3084 1428 2787 
Q 1159 2491 1159 1978 
L 1159 0 
L 581 0 
L 581 4863 
L 1159 4863 
L 1159 2956 
Q 1366 3272 1645 3428 
Q 1925 3584 2291 3584 
Q 2894 3584 3203 3211 
Q 3513 2838 3513 2113 
z
" transform="scale(0.015625)"/>
     </defs>
     <use xlink:href="#DejaVuSans-42"/>
     <use xlink:href="#DejaVuSans-65" transform="translate(68.603516 0)"/>
     <use xlink:href="#DejaVuSans-68" transform="translate(130.126953 0)"/>
     <use xlink:href="#DejaVuSans-61" transform="translate(193.505859 0)"/>
     <use xlink:href="#DejaVuSans-76" transform="translate(254.785156 0)"/>
     <use xlink:href="#DejaVuSans-69" transform="translate(313.964844 0)"/>
     <use xlink:href="#DejaVuSans-6f" transform="translate(341.748047 0)"/>
     <use xlink:href="#DejaVuSans-72" transform="translate(402.929688 0)"/>
    </g>
    <!-- Adjustment -->
    <g style="fill: #111827" transform="translate(163.111984 273.635709) scale(0.11 -0.11)">
     <defs>
      <path id="DejaVuSans-6a" d="M 603 3500 
L 1178 3500 
L 1178 -63 
Q 1178 -731 923 -1031 
Q 669 -1331 103 -1331 
L -116 -1331 
L -116 -844 
L 38 -844 
Q 366 -844 484 -692 
Q 603 -541 603 -63 
L 603 3500 
z
M 603 4863 
L 1178 4863 
L 1178 4134 
L 603 4134 
L 603 4863 
z
" transform="scale(0.015625)"/>
     </defs>
     <use xlink:href="#DejaVuSans-41"/>
     <use xlink:href="#DejaVuSans-64" transform="translate(66.658203 0)"/>
     <use xlink:href="#DejaVuSans-6a" transform="translate(130.134766 0)"/>
     <use xlink:href="#DejaVuSans-75" transform="translate(157.917969 0)"/>
     <use xlink:href="#DejaVuSans-73" transform="translate(221.296875 0)"/>
     <use xlink:href="#DejaVuSans-74" transform="translate(273.396484 0)"/>
     <use xlink:href="#DejaVuSans-6d" transform="translate(312.605469 0)"/>
     <use xlink:href="#DejaVuSans-65" transform="translate(410.017578 0)"/>
     <use xlink:href="#DejaVuSans-6e" transform="translate(471.541016 0)"/>
     <use xlink:href="#DejaVuSans-74" transform="translate(534.919922 0)"/>
    </g>
   </g>
   <g id="text_9">
    <!-- Mode -->
    <g style="fill: #111827" transform="translate(304.693359 261.318116) scale(0.11 -0.11)">
     <use xlink:href="#DejaVuSans-4d"/>
     <use xlink:href="#DejaVuSans-6f" transform="translate(86.279297 0)"/>
     <use xlink:href="#DejaVuSans-64" transform="translate(147.460938 0)"/>
     <use xlink:href="#DejaVuSans-65" transform="translate(210.9375 0)"/>
    </g>
    <!-- Adjustment -->
    <g style="fill: #111827" transform="translate(288.103984 273.635709) scale(0.11 -0.11)">
     <use xlink:href="#DejaVuSans-41"/>
     <use xlink:href="#DejaVuSans-64" transform="translate(66.658203 0)"/>
     <use xlink:href="#DejaVuSans-6a" transform="translate(130.134766 0)"/>
     <use xlink:href="#DejaVuSans-75" transform="translate(157.917969 0)"/>
     <use xlink:href="#DejaVuSans-73" transform="translate(221.296875 0)"/>
     <use xlink:href="#DejaVuSans-74" transform="translate(273.396484 0)"/>
     <use xlink:href="#DejaVuSans-6d" transform="translate(312.605469 0)"/>
     <use xlink:href="#DejaVuSans-65" transform="translate(410.017578 0)"/>
     <use xlink:href="#DejaVuSans-6e" transform="translate(471.541016 0)"/>
     <use xlink:href="#DejaVuSans-74" transform="translate(534.919922 0)"/>
    </g>
   </g>
   <g id="text_10">
    <!-- Network -->
    <g style="fill: #111827" transform="translate(421.707781 261.318116) scale(0.11 -0.11)">
     <defs>
      <path id="DejaVuSans-4e" d="M 628 4666 
L 1478 4666 
L 3547 763 
L 3547 4666 
L 4159 4666 
L 4159 0 
L 3309 0 
L 1241 3903 
L 1241 0 
L 628 0 
L 628 4666 
z
" transform="scale(0.015625)"/>
      <path id="DejaVuSans-77" d="M 269 3500 
L 844 3500 
L 1563 769 
L 2278 3500 
L 2956 3500 
L 3675 769 
L 4391 3500 
L 4966 3500 
L 4050 0 
L 3372 0 
L 2619 2869 
L 1863 0 
L 1184 0 
L 269 3500 
z
" transform="scale(0.015625)"/>
     </defs>
     <use xlink:href="#DejaVuSans-4e"/>
     <use xlink:href="#DejaVuSans-65" transform="translate(74.804688 0)"/>
     <use xlink:href="#DejaVuSans-74" transform="translate(136.328125 0)"/>
     <use xlink:href="#DejaVuSans-77" transform="translate(175.537109 0)"/>
     <use xlink:href="#DejaVuSans-6f" transform="translate(257.324219 0)"/>
     <use xlink:href="#DejaVuSans-72" transform="translate(318.505859 0)"/>
     <use xlink:href="#DejaVuSans-6b" transform="translate(359.619141 0)"/>
    </g>
    <!-- Adjustment -->
    <g style="fill: #111827" transform="translate(413.095984 273.635709) scale(0.11 -0.11)">
     <use xlink:href="#DejaVuSans-41"/>
     <use xlink:href="#DejaVuSans-64" transform="translate(66.658203 0)"/>
     <use xlink:href="#DejaVuSans-6a" transform="translate(130.134766 0)"/>
     <use xlink:href="#DejaVuSans-75" transform="translate(157.917969 0)"/>
     <use xlink:href="#DejaVuSans-73" transform="translate(221.296875 0)"/>
     <use xlink:href="#DejaVuSans-74" transform="translate(273.396484 0)"/>
     <use xlink:href="#DejaVuSans-6d" transform="translate(312.605469 0)"/>
     <use xlink:href="#DejaVuSans-65" transform="translate(410.017578 0)"/>
     <use xlink:href="#DejaVuSans-6e" transform="translate(471.541016 0)"/>
     <use xlink:href="#DejaVuSans-74" transform="translate(534.919922 0)"/>
    </g>
   </g>
   <g id="text_11">
    <!-- Smoothed -->
    <g style="fill: #111827" transform="translate(541.566734 261.318116) scale(0.11 -0.11)">
     <use xlink:href="#DejaVuSans-53"/>
     <use xlink:href="#DejaVuSans-6d" transform="translate(63.476562 0)"/>
     <use xlink:href="#DejaVuSans-6f" transform="translate(160.888672 0)"/>
     <use xlink:href="#DejaVuSans-6f" transform="translate(222.070312 0)"/>
     <use xlink:href="#DejaVuSans-74" transform="translate(283.251953 0)"/>
     <use xlink:href="#DejaVuSans-68" transform="translate(322.460938 0)"/>
     <use xlink:href="#DejaVuSans-65" transform="translate(385.839844 0)"/>
     <use xlink:href="#DejaVuSans-64" transform="translate(447.363281 0)"/>
    </g>
    <!-- Final Risk -->
    <g style="fill: #111827" transform="translate(543.839781 273.635709) scale(0.11 -0.11)">
     <use xlink:href="#DejaVuSans-46"/>
     <use xlink:href="#DejaVuSans-69" transform="translate(50.269531 0)"/>
     <use xlink:href="#DejaVuSans-6e" transform="translate(78.052734 0)"/>
     <use xlink:href="#DejaVuSans-61" transform="translate(141.431641 0)"/>
     <use xlink:href="#DejaVuSans-6c" transform="translate(202.710938 0)"/>
     <use xlink:href="#DejaVuSans-20" transform="translate(230.494141 0)"/>
     <use xlink:href="#DejaVuSans-52" transform="translate(262.28125 0)"/>
     <use xlink:href="#DejaVuSans-69" transform="translate(331.763672 0)"/>
     <use xlink:href="#DejaVuSans-73" transform="translate(359.546875 0)"/>
     <use xlink:href="#DejaVuSans-6b" transform="translate(411.646484 0)"/>
    </g>
   </g>
   <g id="text_12">
    <!-- Security -->
    <g style="fill: #111827" transform="translate(687.693906 261.318116) scale(0.11 -0.11)">
     <use xlink:href="#DejaVuSans-53"/>
     <use xlink:href="#DejaVuSans-65" transform="translate(63.476562 0)"/>
     <use xlink:href="#DejaVuSans-63" transform="translate(125 0)"/>
     <use xlink:href="#DejaVuSans-75" transform="translate(179.980469 0)"/>
     <use xlink:href="#DejaVuSans-72" transform="translate(243.359375 0)"/>
     <use xlink:href="#DejaVuSans-69" transform="translate(284.472656 0)"/>
     <use xlink:href="#DejaVuSans-74" transform="translate(312.255859 0)"/>
     <use xlink:href="#DejaVuSans-79" transform="translate(351.464844 0)"/>
    </g>
    <!-- Tier -->
    <g style="fill: #111827" transform="translate(699.919375 273.635709) scale(0.11 -0.11)">
     <use xlink:href="#DejaVuSans-54"/>
     <use xlink:href="#DejaVuSans-69" transform="translate(57.958984 0)"/>
     <use xlink:href="#DejaVuSans-65" transform="translate(85.742188 0)"/>
     <use xlink:href="#DejaVuSans-72" transform="translate(147.265625 0)"/>
    </g>
   </g>
   <g id="text_13">
    <!-- Red Response -->
    <g style="fill: #111827" transform="translate(656.042563 381.068516) scale(0.11 -0.11)">
     <use xlink:href="#DejaVuSans-52"/>
     <use xlink:href="#DejaVuSans-65" transform="translate(64.982422 0)"/>
     <use xlink:href="#DejaVuSans-64" transform="translate(126.505859 0)"/>
     <use xlink:href="#DejaVuSans-20" transform="translate(189.982422 0)"/>
     <use xlink:href="#DejaVuSans-52" transform="translate(221.769531 0)"/>
     <use xlink:href="#DejaVuSans-65" transform="translate(286.751953 0)"/>
     <use xlink:href="#DejaVuSans-73" transform="translate(348.275391 0)"/>
     <use xlink:href="#DejaVuSans-70" transform="translate(400.375 0)"/>
     <use xlink:href="#DejaVuSans-6f" transform="translate(463.851562 0)"/>
     <use xlink:href="#DejaVuSans-6e" transform="translate(525.033203 0)"/>
     <use xlink:href="#DejaVuSans-73" transform="translate(588.412109 0)"/>
     <use xlink:href="#DejaVuSans-65" transform="translate(640.511719 0)"/>
    </g>
    <!-- Lock + Prompt -->
    <g style="fill: #111827" transform="translate(654.280844 393.386109) scale(0.11 -0.11)">
     <defs>
      <path id="DejaVuSans-2b" d="M 2944 4013 
L 2944 2272 
L 4684 2272 
L 4684 1741 
L 2944 1741 
L 2944 0 
L 2419 0 
L 2419 1741 
L 678 1741 
L 678 2272 
L 2419 2272 
L 2419 4013 
L 2944 4013 
z
" transform="scale(0.015625)"/>
     </defs>
     <use xlink:href="#DejaVuSans-4c"/>
     <use xlink:href="#DejaVuSans-6f" transform="translate(53.962891 0)"/>
     <use xlink:href="#DejaVuSans-63" transform="translate(115.144531 0)"/>
     <use xlink:href="#DejaVuSans-6b" transform="translate(170.125 0)"/>
     <use xlink:href="#DejaVuSans-20" transform="translate(228.035156 0)"/>
     <use xlink:href="#DejaVuSans-2b" transform="translate(259.822266 0)"/>
     <use xlink:href="#DejaVuSans-20" transform="translate(343.611328 0)"/>
     <use xlink:href="#DejaVuSans-50" transform="translate(375.398438 0)"/>
     <use xlink:href="#DejaVuSans-72" transform="translate(433.951172 0)"/>
     <use xlink:href="#DejaVuSans-6f" transform="translate(472.814453 0)"/>
     <use xlink:href="#DejaVuSans-6d" transform="translate(533.996094 0)"/>
     <use xlink:href="#DejaVuSans-70" transform="translate(631.408203 0)"/>
     <use xlink:href="#DejaVuSans-74" transform="translate(694.884766 0)"/>
    </g>
   </g>
   <g id="text_14">
    <!-- Yellow Response -->
    <g style="fill: #111827" transform="translate(446.446578 381.068516) scale(0.11 -0.11)">
     <defs>
      <path id="DejaVuSans-59" d="M -13 4666 
L 666 4666 
L 1959 2747 
L 3244 4666 
L 3922 4666 
L 2272 2222 
L 2272 0 
L 1638 0 
L 1638 2222 
L -13 4666 
z
" transform="scale(0.015625)"/>
     </defs>
     <use xlink:href="#DejaVuSans-59"/>
     <use xlink:href="#DejaVuSans-65" transform="translate(47.833984 0)"/>
     <use xlink:href="#DejaVuSans-6c" transform="translate(109.357422 0)"/>
     <use xlink:href="#DejaVuSans-6c" transform="translate(137.140625 0)"/>
     <use xlink:href="#DejaVuSans-6f" transform="translate(164.923828 0)"/>
     <use xlink:href="#DejaVuSans-77" transform="translate(226.105469 0)"/>
     <use xlink:href="#DejaVuSans-20" transform="translate(307.892578 0)"/>
     <use xlink:href="#DejaVuSans-52" transform="translate(339.679688 0)"/>
     <use xlink:href="#DejaVuSans-65" transform="translate(404.662109 0)"/>
     <use xlink:href="#DejaVuSans-73" transform="translate(466.185547 0)"/>
     <use xlink:href="#DejaVuSans-70" transform="translate(518.285156 0)"/>
     <use xlink:href="#DejaVuSans-6f" transform="translate(581.761719 0)"/>
     <use xlink:href="#DejaVuSans-6e" transform="translate(642.943359 0)"/>
     <use xlink:href="#DejaVuSans-73" transform="translate(706.322266 0)"/>
     <use xlink:href="#DejaVuSans-65" transform="translate(758.421875 0)"/>
    </g>
    <!-- Warn / Monitor -->
    <g style="fill: #111827" transform="translate(451.180016 393.386109) scale(0.11 -0.11)">
     <defs>
      <path id="DejaVuSans-57" d="M 213 4666 
L 850 4666 
L 1831 722 
L 2809 4666 
L 3519 4666 
L 4500 722 
L 5478 4666 
L 6119 4666 
L 4947 0 
L 4153 0 
L 3169 4050 
L 2175 0 
L 1381 0 
L 213 4666 
z
" transform="scale(0.015625)"/>
      <path id="DejaVuSans-2f" d="M 1625 4666 
L 2156 4666 
L 531 -594 
L 0 -594 
L 1625 4666 
z
" transform="scale(0.015625)"/>
     </defs>
     <use xlink:href="#DejaVuSans-57"/>
     <use xlink:href="#DejaVuSans-61" transform="translate(92.501953 0)"/>
     <use xlink:href="#DejaVuSans-72" transform="translate(153.78125 0)"/>
     <use xlink:href="#DejaVuSans-6e" transform="translate(193.144531 0)"/>
     <use xlink:href="#DejaVuSans-20" transform="translate(256.523438 0)"/>
     <use xlink:href="#DejaVuSans-2f" transform="translate(288.310547 0)"/>
     <use xlink:href="#DejaVuSans-20" transform="translate(322.001953 0)"/>
     <use xlink:href="#DejaVuSans-4d" transform="translate(353.789062 0)"/>
     <use xlink:href="#DejaVuSans-6f" transform="translate(440.068359 0)"/>
     <use xlink:href="#DejaVuSans-6e" transform="translate(501.25 0)"/>
     <use xlink:href="#DejaVuSans-69" transform="translate(564.628906 0)"/>
     <use xlink:href="#DejaVuSans-74" transform="translate(592.412109 0)"/>
     <use xlink:href="#DejaVuSans-6f" transform="translate(631.621094 0)"/>
     <use xlink:href="#DejaVuSans-72" transform="translate(692.802734 0)"/>
    </g>
   </g>
   <g id="text_15">
    <!-- Green Response -->
    <g style="fill: #111827" transform="translate(243.615594 381.068516) scale(0.11 -0.11)">
     <defs>
      <path id="DejaVuSans-47" d="M 3809 666 
L 3809 1919 
L 2778 1919 
L 2778 2438 
L 4434 2438 
L 4434 434 
Q 4069 175 3628 42 
Q 3188 -91 2688 -91 
Q 1594 -91 976 548 
Q 359 1188 359 2328 
Q 359 3472 976 4111 
Q 1594 4750 2688 4750 
Q 3144 4750 3555 4637 
Q 3966 4525 4313 4306 
L 4313 3634 
Q 3963 3931 3569 4081 
Q 3175 4231 2741 4231 
Q 1884 4231 1454 3753 
Q 1025 3275 1025 2328 
Q 1025 1384 1454 906 
Q 1884 428 2741 428 
Q 3075 428 3337 486 
Q 3600 544 3809 666 
z
" transform="scale(0.015625)"/>
     </defs>
     <use xlink:href="#DejaVuSans-47"/>
     <use xlink:href="#DejaVuSans-72" transform="translate(77.490234 0)"/>
     <use xlink:href="#DejaVuSans-65" transform="translate(116.353516 0)"/>
     <use xlink:href="#DejaVuSans-65" transform="translate(177.876953 0)"/>
     <use xlink:href="#DejaVuSans-6e" transform="translate(239.400391 0)"/>
     <use xlink:href="#DejaVuSans-20" transform="translate(302.779297 0)"/>
     <use xlink:href="#DejaVuSans-52" transform="translate(334.566406 0)"/>
     <use xlink:href="#DejaVuSans-65" transform="translate(399.548828 0)"/>
     <use xlink:href="#DejaVuSans-73" transform="translate(461.072266 0)"/>
     <use xlink:href="#DejaVuSans-70" transform="translate(513.171875 0)"/>
     <use xlink:href="#DejaVuSans-6f" transform="translate(576.648438 0)"/>
     <use xlink:href="#DejaVuSans-6e" transform="translate(637.830078 0)"/>
     <use xlink:href="#DejaVuSans-73" transform="translate(701.208984 0)"/>
     <use xlink:href="#DejaVuSans-65" transform="translate(753.308594 0)"/>
    </g>
    <!-- Normal State -->
    <g style="fill: #111827" transform="translate(252.224813 393.386109) scale(0.11 -0.11)">
     <use xlink:href="#DejaVuSans-4e"/>
     <use xlink:href="#DejaVuSans-6f" transform="translate(74.804688 0)"/>
     <use xlink:href="#DejaVuSans-72" transform="translate(135.986328 0)"/>
     <use xlink:href="#DejaVuSans-6d" transform="translate(175.349609 0)"/>
     <use xlink:href="#DejaVuSans-61" transform="translate(272.761719 0)"/>
     <use xlink:href="#DejaVuSans-6c" transform="translate(334.041016 0)"/>
     <use xlink:href="#DejaVuSans-20" transform="translate(361.824219 0)"/>
     <use xlink:href="#DejaVuSans-53" transform="translate(393.611328 0)"/>
     <use xlink:href="#DejaVuSans-74" transform="translate(457.087891 0)"/>
     <use xlink:href="#DejaVuSans-61" transform="translate(496.296875 0)"/>
     <use xlink:href="#DejaVuSans-74" transform="translate(557.576172 0)"/>
     <use xlink:href="#DejaVuSans-65" transform="translate(596.785156 0)"/>
    </g>
   </g>
   <g id="patch_16">
    <path d="M 118.570588 113.6448 
Q 132.19191 113.6448 143.800771 113.6448 
" style="fill: none; stroke: #475569; stroke-width: 1.8; stroke-linecap: round"/>
    <path d="M 139.800771 111.6448 
L 143.800771 113.6448 
L 139.800771 115.6448 
" style="fill: none; stroke: #475569; stroke-width: 1.8; stroke-linecap: round"/>
   </g>
   <g id="patch_17">
    <path d="M 243.562588 113.6448 
Q 257.18391 113.6448 268.792771 113.6448 
" style="fill: none; stroke: #475569; stroke-width: 1.8; stroke-linecap: round"/>
    <path d="M 264.792771 111.6448 
L 268.792771 113.6448 
L 264.792771 115.6448 
" style="fill: none; stroke: #475569; stroke-width: 1.8; stroke-linecap: round"/>
   </g>
   <g id="patch_18">
    <path d="M 368.554588 113.6448 
Q 382.17591 113.6448 393.784771 113.6448 
" style="fill: none; stroke: #475569; stroke-width: 1.8; stroke-linecap: round"/>
    <path d="M 389.784771 111.6448 
L 393.784771 113.6448 
L 389.784771 115.6448 
" style="fill: none; stroke: #475569; stroke-width: 1.8; stroke-linecap: round"/>
   </g>
   <g id="patch_19">
    <path d="M 493.546588 113.6448 
Q 507.16791 113.6448 518.776771 113.6448 
" style="fill: none; stroke: #475569; stroke-width: 1.8; stroke-linecap: round"/>
    <path d="M 514.776771 111.6448 
L 518.776771 113.6448 
L 514.776771 115.6448 
" style="fill: none; stroke: #475569; stroke-width: 1.8; stroke-linecap: round"/>
   </g>
   <g id="patch_20">
    <path d="M 618.538588 113.6448 
Q 632.15991 113.6448 643.768771 113.6448 
" style="fill: none; stroke: #475569; stroke-width: 1.8; stroke-linecap: round"/>
    <path d="M 639.768771 111.6448 
L 643.768771 113.6448 
L 639.768771 115.6448 
" style="fill: none; stroke: #475569; stroke-width: 1.8; stroke-linecap: round"/>
   </g>
   <g id="patch_21">
    <path d="M 202.5 142.25406 
Q 202.5 189.04324 202.5 233.819959 
" style="fill: none; stroke: #475569; stroke-width: 1.8; stroke-linecap: round"/>
    <path d="M 204.5 229.819959 
L 202.5 233.819959 
L 200.5 229.819959 
" style="fill: none; stroke: #475569; stroke-width: 1.8; stroke-linecap: round"/>
   </g>
   <g id="patch_22">
    <path d="M 319.68 142.25406 
Q 319.68 189.04324 319.68 233.819959 
" style="fill: none; stroke: #475569; stroke-width: 1.8; stroke-linecap: round"/>
    <path d="M 321.68 229.819959 
L 319.68 233.819959 
L 317.68 229.819959 
" style="fill: none; stroke: #475569; stroke-width: 1.8; stroke-linecap: round"/>
   </g>
   <g id="patch_23">
    <path d="M 444.672 142.25406 
Q 444.672 189.04324 444.672 233.819959 
" style="fill: none; stroke: #475569; stroke-width: 1.8; stroke-linecap: round"/>
    <path d="M 446.672 229.819959 
L 444.672 233.819959 
L 442.672 229.819959 
" style="fill: none; stroke: #475569; stroke-width: 1.8; stroke-linecap: round"/>
   </g>
   <g id="patch_24">
    <path d="M 569.664 142.25406 
Q 569.664 189.04324 569.664 233.819959 
" style="fill: none; stroke: #475569; stroke-width: 1.8; stroke-linecap: round"/>
    <path d="M 571.664 229.819959 
L 569.664 233.819959 
L 567.664 229.819959 
" style="fill: none; stroke: #475569; stroke-width: 1.8; stroke-linecap: round"/>
   </g>
   <g id="patch_25">
    <path d="M 709.716415 301.843027 
Q 702.467947 326.534582 695.786337 349.295161 
" style="fill: none; stroke: #475569; stroke-width: 1.8; stroke-linecap: round"/>
    <path d="M 698.832055 346.020469 
L 695.786337 349.295161 
L 694.994015 344.893772 
" style="fill: none; stroke: #475569; stroke-width: 1.8; stroke-linecap: round"/>
   </g>
   <g id="text_16">
    <g id="patch_26">
     <path d="M 708.592 324.303062 
L 727.592 324.303062 
Q 729.392 324.303062 729.392 322.503062 
L 729.392 312.824937 
Q 729.392 311.024937 727.592 311.024937 
L 708.592 311.024937 
Q 706.792 311.024937 706.792 312.824937 
L 706.792 322.503062 
Q 706.792 324.303062 708.592 324.303062 
z
" style="fill: #ffffff; opacity: 0.85"/>
    </g>
    <!-- Red -->
    <g style="fill: #475569" transform="translate(708.592 320.423375) scale(0.1 -0.1)">
     <use xlink:href="#DejaVuSans-52"/>
     <use xlink:href="#DejaVuSans-65" transform="translate(64.982422 0)"/>
     <use xlink:href="#DejaVuSans-64" transform="translate(126.505859 0)"/>
    </g>
   </g>
   <g id="patch_27">
    <path d="M 677.106655 300.46975 
Q 585.286609 326.534795 495.402532 352.050275 
" style="fill: none; stroke: #475569; stroke-width: 1.8; stroke-linecap: round"/>
    <path d="M 499.796658 352.881932 
L 495.402532 352.050275 
L 498.704333 349.033968 
" style="fill: none; stroke: #475569; stroke-width: 1.8; stroke-linecap: round"/>
   </g>
   <g id="text_17">
    <g id="patch_28">
     <path d="M 569.893469 324.303062 
L 600.682531 324.303062 
Q 602.482531 324.303062 602.482531 322.503062 
L 602.482531 312.824937 
Q 602.482531 311.024937 600.682531 311.024937 
L 569.893469 311.024937 
Q 568.093469 311.024937 568.093469 312.824937 
L 568.093469 322.503062 
Q 568.093469 324.303062 569.893469 324.303062 
z
" style="fill: #ffffff; opacity: 0.85"/>
    </g>
    <!-- Yellow -->
    <g style="fill: #475569" transform="translate(569.893469 320.423375) scale(0.1 -0.1)">
     <use xlink:href="#DejaVuSans-59"/>
     <use xlink:href="#DejaVuSans-65" transform="translate(47.833984 0)"/>
     <use xlink:href="#DejaVuSans-6c" transform="translate(109.357422 0)"/>
     <use xlink:href="#DejaVuSans-6c" transform="translate(137.140625 0)"/>
     <use xlink:href="#DejaVuSans-6f" transform="translate(164.923828 0)"/>
     <use xlink:href="#DejaVuSans-77" transform="translate(226.105469 0)"/>
    </g>
   </g>
   <g id="patch_29">
    <path d="M 661.425438 300.204596 
Q 475.917605 326.53474 292.402263 352.582079 
" style="fill: none; stroke: #475569; stroke-width: 1.8; stroke-linecap: round"/>
    <path d="M 296.643624 354.000124 
L 292.402263 352.582079 
L 296.081516 350.039817 
" style="fill: none; stroke: #475569; stroke-width: 1.8; stroke-linecap: round"/>
   </g>
   <g id="text_18">
    <g id="patch_30">
     <path d="M 452.968937 324.303062 
L 483.247062 324.303062 
Q 485.047062 324.303062 485.047062 322.503062 
L 485.047062 312.824937 
Q 485.047062 311.024937 483.247062 311.024937 
L 452.968937 311.024937 
Q 451.168937 311.024937 451.168937 312.824937 
L 451.168937 322.503062 
Q 451.168937 324.303062 452.968937 324.303062 
z
" style="fill: #ffffff; opacity: 0.85"/>
    </g>
    <!-- Green -->
    <g style="fill: #475569" transform="translate(452.968937 320.423375) scale(0.1 -0.1)">
     <use xlink:href="#DejaVuSans-47"/>
     <use xlink:href="#DejaVuSans-72" transform="translate(77.490234 0)"/>
     <use xlink:href="#DejaVuSans-65" transform="translate(116.353516 0)"/>
     <use xlink:href="#DejaVuSans-65" transform="translate(177.876953 0)"/>
     <use xlink:href="#DejaVuSans-6e" transform="translate(239.400391 0)"/>
    </g>
   </g>
   <g id="patch_31">
    <path d="M 694.656 360.019294 
Q 694.656 357.580945 694.656 357.155057 
" style="fill: none; stroke: #475569; stroke-width: 1.8; stroke-linecap: round"/>
    <path d="M 692.656 361.155057 
L 694.656 357.155057 
L 696.656 361.155057 
" style="fill: none; stroke: #475569; stroke-width: 1.8; stroke-linecap: round"/>
   </g>
   <g id="patch_32">
    <path d="M 491.544 360.019294 
Q 491.544 357.580945 491.544 357.155057 
" style="fill: none; stroke: #475569; stroke-width: 1.8; stroke-linecap: round"/>
    <path d="M 489.544 361.155057 
L 491.544 357.155057 
L 493.544 361.155057 
" style="fill: none; stroke: #475569; stroke-width: 1.8; stroke-linecap: round"/>
   </g>
   <g id="patch_33">
    <path d="M 288.432 360.019294 
Q 288.432 357.580945 288.432 357.155057 
" style="fill: none; stroke: #475569; stroke-width: 1.8; stroke-linecap: round"/>
    <path d="M 286.432 361.155057 
L 288.432 357.155057 
L 290.432 361.155057 
" style="fill: none; stroke: #475569; stroke-width: 1.8; stroke-linecap: round"/>
   </g>
  </g>
 </g>
 <defs>
  <clipPath id="p37e7099616">
   <rect x="7.2" y="7.2" width="781.2" height="443.52"/>
  </clipPath>
 </defs>
</svg>
