<?xml version="1.0" encoding="utf-8" standalone="no"?>
<!DOCTYPE svg PUBLIC "-//W3C//DTD SVG 1.1//EN"
  "http://www.w3.org/Graphics/SVG/1.1/DTD/svg11.dtd">
<svg xmlns:xlink="http://www.w3.org/1999/xlink" width="795.6pt" height="457.92pt" viewBox="0 0 795.6 457.92" xmlns="http://www.w3.org/2000/svg" version="1.1">
 <metadata>
  <rdf:RDF xmlns:dc="http://purl.org/dc/elements/1.1/" xmlns:cc="http://creativecommons.org/ns#" xmlns:rdf="http://www.w3.org/1999/02/22-rdf-syntax-ns#">
   <cc:Work>
    <dc:type rdf:resource="http://purl.org/dc/dcmitype/StillImage"/>
    <dc:date>2026-04-08T22:08:32.378530</dc:date>
    <dc:format>image/svg+xml</dc:format>
    <dc:creator>
     <cc:Agent>
      <dc:title>Matplotlib v3.10.7, https://matplotlib.org/</dc:title>
     </cc:Agent>
    </dc:creator>
   </cc:Work>
  </rdf:RDF>
 </metadata>
 <defs>
  <style type="text/css">*{stroke-linejoin: round; stroke-linecap: butt}</style>
 </defs>
 <g id="figure_1">
  <g id="patch_1">
   <path d="M 0 457.92 
L 795.6 457.92 
L 795.6 0 
L 0 0 
z
" style="fill: #ffffff"/>
  </g>
  <g id="axes_1">
   <g id="patch_2">
    <path d="M 46.26 251.136 
L 155.628 251.136 
Q 171.252 251.136 171.252 242.2656 
L 171.252 197.9136 
Q 171.252 189.0432 155.628 189.0432 
L 46.26 189.0432 
Q 30.636 189.0432 30.636 197.9136 
L 30.636 242.2656 
Q 30.636 251.136 46.26 251.136 
z
" clip-path="url(#pef4a959b50)" style="fill: #dcfce7; stroke: #16a34a; stroke-width: 1.8; stroke-linejoin: miter"/>
   </g>
   <g id="patch_3">
    <path d="M 296.244 135.8208 
L 405.612 135.8208 
Q 421.236 135.8208 421.236 126.9504 
L 421.236 82.5984 
Q 421.236 73.728 405.612 73.728 
L 296.244 73.728 
Q 280.62 73.728 280.62 82.5984 
L 280.62 126.9504 
Q 280.62 135.8208 296.244 135.8208 
z
" clip-path="url(#pef4a959b50)" style="fill: #fef08a; stroke: #ca8a04; stroke-width: 1.8; stroke-linejoin: miter"/>
   </g>
   <g id="patch_4">
    <path d="M 546.228 251.136 
L 655.596 251.136 
Q 671.22 251.136 671.22 242.2656 
L 671.22 197.9136 
Q 671.22 189.0432 655.596 189.0432 
L 546.228 189.0432 
Q 530.604 189.0432 530.604 197.9136 
L 530.604 242.2656 
Q 530.604 251.136 546.228 251.136 
z
" clip-path="url(#pef4a959b50)" style="fill: #fee2e2; stroke: #dc2626; stroke-width: 1.8; stroke-linejoin: miter"/>
   </g>
   <g id="patch_5">
    <path d="M 296.244 366.4512 
L 405.612 366.4512 
Q 421.236 366.4512 421.236 357.5808 
L 421.236 313.2288 
Q 421.236 304.3584 405.612 304.3584 
L 296.244 304.3584 
Q 280.62 304.3584 280.62 313.2288 
L 280.62 357.5808 
Q 280.62 366.4512 296.244 366.4512 
z
" clip-path="url(#pef4a959b50)" style="fill: #e0f2fe; stroke: #0284c7; stroke-width: 1.8; stroke-linejoin: miter"/>
   </g>
   <g id="text_1">
    <!-- Adaptive-OS Security State Machine -->
    <g style="fill: #1f2937" transform="translate(213.599531 38.617987) scale(0.18 -0.18)">
     <defs>
      <path id="DejaVuSans-Bold-41" d="M 3419 850 
L 1538 850 
L 1241 0 
L 31 0 
L 1759 4666 
L 3194 4666 
L 4922 0 
L 3713 0 
L 3419 850 
z
M 1838 1716 
L 3116 1716 
L 2478 3572 
L 1838 1716 
z
" transform="scale(0.015625)"/>
      <path id="DejaVuSans-Bold-64" d="M 2919 2988 
L 2919 4863 
L 4044 4863 
L 4044 0 
L 2919 0 
L 2919 506 
Q 2688 197 2409 53 
Q 2131 -91 1766 -91 
Q 1119 -91 703 423 
Q 288 938 288 1747 
Q 288 2556 703 3070 
Q 1119 3584 1766 3584 
Q 2128 3584 2408 3439 
Q 2688 3294 2919 2988 
z
M 2181 722 
Q 2541 722 2730 984 
Q 2919 1247 2919 1747 
Q 2919 2247 2730 2509 
Q 2541 2772 2181 2772 
Q 1825 2772 1636 2509 
Q 1447 2247 1447 1747 
Q 1447 1247 1636 984 
Q 1825 722 2181 722 
z
" transform="scale(0.015625)"/>
      <path id="DejaVuSans-Bold-61" d="M 2106 1575 
Q 1756 1575 1579 1456 
Q 1403 1338 1403 1106 
Q 1403 894 1545 773 
Q 1688 653 1941 653 
Q 2256 653 2472 879 
Q 2688 1106 2688 1447 
L 2688 1575 
L 2106 1575 
z
M 3816 1997 
L 3816 0 
L 2688 0 
L 2688 519 
Q 2463 200 2181 54 
Q 1900 -91 1497 -91 
Q 953 -91 614 226 
Q 275 544 275 1050 
Q 275 1666 698 1953 
Q 1122 2241 2028 2241 
L 2688 2241 
L 2688 2328 
Q 2688 2594 2478 2717 
Q 2269 2841 1825 2841 
Q 1466 2841 1156 2769 
Q 847 2697 581 2553 
L 581 3406 
Q 941 3494 1303 3539 
Q 1666 3584 2028 3584 
Q 2975 3584 3395 3211 
Q 3816 2838 3816 1997 
z
" transform="scale(0.015625)"/>
      <path id="DejaVuSans-Bold-70" d="M 1656 506 
L 1656 -1331 
L 538 -1331 
L 538 3500 
L 1656 3500 
L 1656 2988 
Q 1888 3294 2169 3439 
Q 2450 3584 2816 3584 
Q 3463 3584 3878 3070 
Q 4294 2556 4294 1747 
Q 4294 938 3878 423 
Q 3463 -91 2816 -91 
Q 2450 -91 2169 54 
Q 1888 200 1656 506 
z
M 2400 2772 
Q 2041 2772 1848 2508 
Q 1656 2244 1656 1747 
Q 1656 1250 1848 986 
Q 2041 722 2400 722 
Q 2759 722 2948 984 
Q 3138 1247 3138 1747 
Q 3138 2247 2948 2509 
Q 2759 2772 2400 2772 
z
" transform="scale(0.015625)"/>
      <path id="DejaVuSans-Bold-74" d="M 1759 4494 
L 1759 3500 
L 2913 3500 
L 2913 2700 
L 1759 2700 
L 1759 1216 
Q 1759 972 1856 886 
Q 1953 800 2241 800 
L 2816 800 
L 2816 0 
L 1856 0 
Q 1194 0 917 276 
Q 641 553 641 1216 
L 641 2700 
L 84 2700 
L 84 3500 
L 641 3500 
L 641 4494 
L 1759 4494 
z
" transform="scale(0.015625)"/>
      <path id="DejaVuSans-Bold-69" d="M 538 3500 
L 1656 3500 
L 1656 0 
L 538 0 
L 538 3500 
z
M 538 4863 
L 1656 4863 
L 1656 3950 
L 538 3950 
L 538 4863 
z
" transform="scale(0.015625)"/>
      <path id="DejaVuSans-Bold-76" d="M 97 3500 
L 1216 3500 
L 2088 1081 
L 2956 3500 
L 4078 3500 
L 2700 0 
L 1472 0 
L 97 3500 
z
" transform="scale(0.015625)"/>
      <path id="DejaVuSans-Bold-65" d="M 4031 1759 
L 4031 1441 
L 1416 1441 
Q 1456 1047 1700 850 
Q 1944 653 2381 653 
Q 2734 653 3104 758 
Q 3475 863 3866 1075 
L 3866 213 
Q 3469 63 3072 -14 
Q 2675 -91 2278 -91 
Q 1328 -91 801 392 
Q 275 875 275 1747 
Q 275 2603 792 3093 
Q 1309 3584 2216 3584 
Q 3041 3584 3536 3087 
Q 4031 2591 4031 1759 
z
M 2881 2131 
Q 2881 2450 2695 2645 
Q 2509 2841 2209 2841 
Q 1884 2841 1681 2658 
Q 1478 2475 1428 2131 
L 2881 2131 
z
" transform="scale(0.015625)"/>
      <path id="DejaVuSans-Bold-2d" d="M 347 2297 
L 2309 2297 
L 2309 1388 
L 347 1388 
L 347 2297 
z
" transform="scale(0.015625)"/>
      <path id="DejaVuSans-Bold-4f" d="M 2719 3878 
Q 2169 3878 1866 3472 
Q 1563 3066 1563 2328 
Q 1563 1594 1866 1187 
Q 2169 781 2719 781 
Q 3272 781 3575 1187 
Q 3878 1594 3878 2328 
Q 3878 3066 3575 3472 
Q 3272 3878 2719 3878 
z
M 2719 4750 
Q 3844 4750 4481 4106 
Q 5119 3463 5119 2328 
Q 5119 1197 4481 553 
Q 3844 -91 2719 -91 
Q 1597 -91 958 553 
Q 319 1197 319 2328 
Q 319 3463 958 4106 
Q 1597 4750 2719 4750 
z
" transform="scale(0.015625)"/>
      <path id="DejaVuSans-Bold-53" d="M 3834 4519 
L 3834 3531 
Q 3450 3703 3084 3790 
Q 2719 3878 2394 3878 
Q 1963 3878 1756 3759 
Q 1550 3641 1550 3391 
Q 1550 3203 1689 3098 
Q 1828 2994 2194 2919 
L 2706 2816 
Q 3484 2659 3812 2340 
Q 4141 2022 4141 1434 
Q 4141 663 3683 286 
Q 3225 -91 2284 -91 
Q 1841 -91 1394 -6 
Q 947 78 500 244 
L 500 1259 
Q 947 1022 1364 901 
Q 1781 781 2169 781 
Q 2563 781 2772 912 
Q 2981 1044 2981 1288 
Q 2981 1506 2839 1625 
Q 2697 1744 2272 1838 
L 1806 1941 
Q 1106 2091 782 2419 
Q 459 2747 459 3303 
Q 459 4000 909 4375 
Q 1359 4750 2203 4750 
Q 2588 4750 2994 4692 
Q 3400 4634 3834 4519 
z
" transform="scale(0.015625)"/>
      <path id="DejaVuSans-Bold-20" transform="scale(0.015625)"/>
      <path id="DejaVuSans-Bold-63" d="M 3366 3391 
L 3366 2478 
Q 3138 2634 2908 2709 
Q 2678 2784 2431 2784 
Q 1963 2784 1702 2511 
Q 1441 2238 1441 1747 
Q 1441 1256 1702 982 
Q 1963 709 2431 709 
Q 2694 709 2930 787 
Q 3166 866 3366 1019 
L 3366 103 
Q 3103 6 2833 -42 
Q 2563 -91 2291 -91 
Q 1344 -91 809 395 
Q 275 881 275 1747 
Q 275 2613 809 3098 
Q 1344 3584 2291 3584 
Q 2566 3584 2833 3536 
Q 3100 3488 3366 3391 
z
" transform="scale(0.015625)"/>
      <path id="DejaVuSans-Bold-75" d="M 500 1363 
L 500 3500 
L 1625 3500 
L 1625 3150 
Q 1625 2866 1622 2436 
Q 1619 2006 1619 1863 
Q 1619 1441 1641 1255 
Q 1663 1069 1716 984 
Q 1784 875 1895 815 
Q 2006 756 2150 756 
Q 2500 756 2700 1025 
Q 2900 1294 2900 1772 
L 2900 3500 
L 4019 3500 
L 4019 0 
L 2900 0 
L 2900 506 
Q 2647 200 2364 54 
Q 2081 -91 1741 -91 
Q 1134 -91 817 281 
Q 500 653 500 1363 
z
" transform="scale(0.015625)"/>
      <path id="DejaVuSans-Bold-72" d="M 3138 2547 
Q 2991 2616 2845 2648 
Q 2700 2681 2553 2681 
Q 2122 2681 1889 2404 
Q 1656 2128 1656 1613 
L 1656 0 
L 538 0 
L 538 3500 
L 1656 3500 
L 1656 2925 
Q 1872 3269 2151 3426 
Q 2431 3584 2822 3584 
Q 2878 3584 2943 3579 
Q 3009 3575 3134 3559 
L 3138 2547 
z
" transform="scale(0.015625)"/>
      <path id="DejaVuSans-Bold-79" d="M 78 3500 
L 1197 3500 
L 2138 1125 
L 2938 3500 
L 4056 3500 
L 2584 -331 
Q 2363 -916 2067 -1148 
Q 1772 -1381 1288 -1381 
L 641 -1381 
L 641 -647 
L 991 -647 
Q 1275 -647 1404 -556 
Q 1534 -466 1606 -231 
L 1638 -134 
L 78 3500 
z
" transform="scale(0.015625)"/>
      <path id="DejaVuSans-Bold-4d" d="M 588 4666 
L 2119 4666 
L 3181 2169 
L 4250 4666 
L 5778 4666 
L 5778 0 
L 4641 0 
L 4641 3413 
L 3566 897 
L 2803 897 
L 1728 3413 
L 1728 0 
L 588 0 
L 588 4666 
z
" transform="scale(0.015625)"/>
      <path id="DejaVuSans-Bold-68" d="M 4056 2131 
L 4056 0 
L 2931 0 
L 2931 347 
L 2931 1625 
Q 2931 2084 2911 2256 
Q 2891 2428 2841 2509 
Q 2775 2619 2662 2680 
Q 2550 2741 2406 2741 
Q 2056 2741 1856 2470 
Q 1656 2200 1656 1722 
L 1656 0 
L 538 0 
L 538 4863 
L 1656 4863 
L 1656 2988 
Q 1909 3294 2193 3439 
Q 2478 3584 2822 3584 
Q 3428 3584 3742 3212 
Q 4056 2841 4056 2131 
z
" transform="scale(0.015625)"/>
      <path id="DejaVuSans-Bold-6e" d="M 4056 2131 
L 4056 0 
L 2931 0 
L 2931 347 
L 2931 1631 
Q 2931 2084 2911 2256 
Q 2891 2428 2841 2509 
Q 2775 2619 2662 2680 
Q 2550 2741 2406 2741 
Q 2056 2741 1856 2470 
Q 1656 2200 1656 1722 
L 1656 0 
L 538 0 
L 538 3500 
L 1656 3500 
L 1656 2988 
Q 1909 3294 2193 3439 
Q 2478 3584 2822 3584 
Q 3428 3584 3742 3212 
Q 4056 2841 4056 2131 
z
" transform="scale(0.015625)"/>
     </defs>
     <use xlink:href="#DejaVuSans-Bold-41"/>
     <use xlink:href="#DejaVuSans-Bold-64" transform="translate(77.392578 0)"/>
     <use xlink:href="#DejaVuSans-Bold-61" transform="translate(148.974609 0)"/>
     <use xlink:href="#DejaVuSans-Bold-70" transform="translate(216.455078 0)"/>
     <use xlink:href="#DejaVuSans-Bold-74" transform="translate(288.037109 0)"/>
     <use xlink:href="#DejaVuSans-Bold-69" transform="translate(335.839844 0)"/>
     <use xlink:href="#DejaVuSans-Bold-76" transform="translate(370.117188 0)"/>
     <use xlink:href="#DejaVuSans-Bold-65" transform="translate(435.302734 0)"/>
     <use xlink:href="#DejaVuSans-Bold-2d" transform="translate(503.125 0)"/>
     <use xlink:href="#DejaVuSans-Bold-4f" transform="translate(544.628906 0)"/>
     <use xlink:href="#DejaVuSans-Bold-53" transform="translate(629.638672 0)"/>
     <use xlink:href="#DejaVuSans-Bold-20" transform="translate(701.660156 0)"/>
     <use xlink:href="#DejaVuSans-Bold-53" transform="translate(736.474609 0)"/>
     <use xlink:href="#DejaVuSans-Bold-65" transform="translate(808.496094 0)"/>
     <use xlink:href="#DejaVuSans-Bold-63" transform="translate(876.318359 0)"/>
     <use xlink:href="#DejaVuSans-Bold-75" transform="translate(935.595703 0)"/>
     <use xlink:href="#DejaVuSans-Bold-72" transform="translate(1006.787109 0)"/>
     <use xlink:href="#DejaVuSans-Bold-69" transform="translate(1056.103516 0)"/>
     <use xlink:href="#DejaVuSans-Bold-74" transform="translate(1090.380859 0)"/>
     <use xlink:href="#DejaVuSans-Bold-79" transform="translate(1138.183594 0)"/>
     <use xlink:href="#DejaVuSans-Bold-20" transform="translate(1203.369141 0)"/>
     <use xlink:href="#DejaVuSans-Bold-53" transform="translate(1238.183594 0)"/>
     <use xlink:href="#DejaVuSans-Bold-74" transform="translate(1310.205078 0)"/>
     <use xlink:href="#DejaVuSans-Bold-61" transform="translate(1358.007812 0)"/>
     <use xlink:href="#DejaVuSans-Bold-74" transform="translate(1425.488281 0)"/>
     <use xlink:href="#DejaVuSans-Bold-65" transform="translate(1473.291016 0)"/>
     <use xlink:href="#DejaVuSans-Bold-20" transform="translate(1541.113281 0)"/>
     <use xlink:href="#DejaVuSans-Bold-4d" transform="translate(1575.927734 0)"/>
     <use xlink:href="#DejaVuSans-Bold-61" transform="translate(1675.439453 0)"/>
     <use xlink:href="#DejaVuSans-Bold-63" transform="translate(1742.919922 0)"/>
     <use xlink:href="#DejaVuSans-Bold-68" transform="translate(1802.197266 0)"/>
     <use xlink:href="#DejaVuSans-Bold-69" transform="translate(1873.388672 0)"/>
     <use xlink:href="#DejaVuSans-Bold-6e" transform="translate(1907.666016 0)"/>
     <use xlink:href="#DejaVuSans-Bold-65" transform="translate(1978.857422 0)"/>
    </g>
   </g>
   <g id="text_2">
    <!-- Green -->
    <g style="fill: #111827" transform="translate(82.777125 223.40085) scale(0.12 -0.12)">
     <defs>
      <path id="DejaVuSans-47" d="M 3809 666 
L 3809 1919 
L 2778 1919 
L 2778 2438 
L 4434 2438 
L 4434 434 
Q 4069 175 3628 42 
Q 3188 -91 2688 -91 
Q 1594 -91 976 548 
Q 359 1188 359 2328 
Q 359 3472 976 4111 
Q 1594 4750 2688 4750 
Q 3144 4750 3555 4637 
Q 3966 4525 4313 4306 
L 4313 3634 
Q 3963 3931 3569 4081 
Q 3175 4231 2741 4231 
Q 1884 4231 1454 3753 
Q 1025 3275 1025 2328 
Q 1025 1384 1454 906 
Q 1884 428 2741 428 
Q 3075 428 3337 486 
Q 3600 544 3809 666 
z
" transform="scale(0.015625)"/>
      <path id="DejaVuSans-72" d="M 2631 2963 
Q 2534 3019 2420 3045 
Q 2306 3072 2169 3072 
Q 1681 3072 1420 2755 
Q 1159 2438 1159 1844 
L 1159 0 
L 581 0 
L 581 3500 
L 1159 3500 
L 1159 2956 
Q 1341 3275 1631 3429 
Q 1922 3584 2338 3584 
Q 2397 3584 2469 3576 
Q 2541 3569 2628 3553 
L 2631 2963 
z
" transform="scale(0.015625)"/>
      <path id="DejaVuSans-65" d="M 3597 1894 
L 3597 1613 
L 953 1613 
Q 991 1019 1311 708 
Q 1631 397 2203 397 
Q 2534 397 2845 478 
Q 3156 559 3463 722 
L 3463 178 
Q 3153 47 2828 -22 
Q 2503 -91 2169 -91 
Q 1331 -91 842 396 
Q 353 884 353 1716 
Q 353 2575 817 3079 
Q 1281 3584 2069 3584 
Q 2775 3584 3186 3129 
Q 3597 2675 3597 1894 
z
M 3022 2063 
Q 3016 2534 2758 2815 
Q 2500 3097 2075 3097 
Q 1594 3097 1305 2825 
Q 1016 2553 972 2059 
L 3022 2063 
z
" transform="scale(0.015625)"/>
      <path id="DejaVuSans-6e" d="M 3513 2113 
L 3513 0 
L 2938 0 
L 2938 2094 
Q 2938 2591 2744 2837 
Q 2550 3084 2163 3084 
Q 1697 3084 1428 2787 
Q 1159 2491 1159 1978 
L 1159 0 
L 581 0 
L 581 3500 
L 1159 3500 
L 1159 2956 
Q 1366 3272 1645 3428 
Q 1925 3584 2291 3584 
Q 2894 3584 3203 3211 
Q 3513 2838 3513 2113 
z
" transform="scale(0.015625)"/>
     </defs>
     <use xlink:href="#DejaVuSans-47"/>
     <use xlink:href="#DejaVuSans-72" transform="translate(77.490234 0)"/>
     <use xlink:href="#DejaVuSans-65" transform="translate(116.353516 0)"/>
     <use xlink:href="#DejaVuSans-65" transform="translate(177.876953 0)"/>
     <use xlink:href="#DejaVuSans-6e" transform="translate(239.400391 0)"/>
    </g>
   </g>
   <g id="text_3">
    <!-- Yellow -->
    <g style="fill: #111827" transform="translate(332.454563 108.08565) scale(0.12 -0.12)">
     <defs>
      <path id="DejaVuSans-59" d="M -13 4666 
L 666 4666 
L 1959 2747 
L 3244 4666 
L 3922 4666 
L 2272 2222 
L 2272 0 
L 1638 0 
L 1638 2222 
L -13 4666 
z
" transform="scale(0.015625)"/>
      <path id="DejaVuSans-6c" d="M 603 4863 
L 1178 4863 
L 1178 0 
L 603 0 
L 603 4863 
z
" transform="scale(0.015625)"/>
      <path id="DejaVuSans-6f" d="M 1959 3097 
Q 1497 3097 1228 2736 
Q 959 2375 959 1747 
Q 959 1119 1226 758 
Q 1494 397 1959 397 
Q 2419 397 2687 759 
Q 2956 1122 2956 1747 
Q 2956 2369 2687 2733 
Q 2419 3097 1959 3097 
z
M 1959 3584 
Q 2709 3584 3137 3096 
Q 3566 2609 3566 1747 
Q 3566 888 3137 398 
Q 2709 -91 1959 -91 
Q 1206 -91 779 398 
Q 353 888 353 1747 
Q 353 2609 779 3096 
Q 1206 3584 1959 3584 
z
" transform="scale(0.015625)"/>
      <path id="DejaVuSans-77" d="M 269 3500 
L 844 3500 
L 1563 769 
L 2278 3500 
L 2956 3500 
L 3675 769 
L 4391 3500 
L 4966 3500 
L 4050 0 
L 3372 0 
L 2619 2869 
L 1863 0 
L 1184 0 
L 269 3500 
z
" transform="scale(0.015625)"/>
     </defs>
     <use xlink:href="#DejaVuSans-59"/>
     <use xlink:href="#DejaVuSans-65" transform="translate(47.833984 0)"/>
     <use xlink:href="#DejaVuSans-6c" transform="translate(109.357422 0)"/>
     <use xlink:href="#DejaVuSans-6c" transform="translate(137.140625 0)"/>
     <use xlink:href="#DejaVuSans-6f" transform="translate(164.923828 0)"/>
     <use xlink:href="#DejaVuSans-77" transform="translate(226.105469 0)"/>
    </g>
   </g>
   <g id="text_4">
    <!-- Red -->
    <g style="fill: #111827" transform="translate(589.512 223.40085) scale(0.12 -0.12)">
     <defs>
      <path id="DejaVuSans-52" d="M 2841 2188 
Q 3044 2119 3236 1894 
Q 3428 1669 3622 1275 
L 4263 0 
L 3584 0 
L 2988 1197 
Q 2756 1666 2539 1819 
Q 2322 1972 1947 1972 
L 1259 1972 
L 1259 0 
L 628 0 
L 628 4666 
L 2053 4666 
Q 2853 4666 3247 4331 
Q 3641 3997 3641 3322 
Q 3641 2881 3436 2590 
Q 3231 2300 2841 2188 
z
M 1259 4147 
L 1259 2491 
L 2053 2491 
Q 2509 2491 2742 2702 
Q 2975 2913 2975 3322 
Q 2975 3731 2742 3939 
Q 2509 4147 2053 4147 
L 1259 4147 
z
" transform="scale(0.015625)"/>
      <path id="DejaVuSans-64" d="M 2906 2969 
L 2906 4863 
L 3481 4863 
L 3481 0 
L 2906 0 
L 2906 525 
Q 2725 213 2448 61 
Q 2172 -91 1784 -91 
Q 1150 -91 751 415 
Q 353 922 353 1747 
Q 353 2572 751 3078 
Q 1150 3584 1784 3584 
Q 2172 3584 2448 3432 
Q 2725 3281 2906 2969 
z
M 947 1747 
Q 947 1113 1208 752 
Q 1469 391 1925 391 
Q 2381 391 2643 752 
Q 2906 1113 2906 1747 
Q 2906 2381 2643 2742 
Q 2381 3103 1925 3103 
Q 1469 3103 1208 2742 
Q 947 2381 947 1747 
z
" transform="scale(0.015625)"/>
     </defs>
     <use xlink:href="#DejaVuSans-52"/>
     <use xlink:href="#DejaVuSans-65" transform="translate(64.982422 0)"/>
     <use xlink:href="#DejaVuSans-64" transform="translate(126.505859 0)"/>
    </g>
   </g>
   <g id="text_5">
    <!-- Prompt / -->
    <g style="fill: #111827" transform="translate(327.599406 332.281316) scale(0.11 -0.11)">
     <defs>
      <path id="DejaVuSans-50" d="M 1259 4147 
L 1259 2394 
L 2053 2394 
Q 2494 2394 2734 2622 
Q 2975 2850 2975 3272 
Q 2975 3691 2734 3919 
Q 2494 4147 2053 4147 
L 1259 4147 
z
M 628 4666 
L 2053 4666 
Q 2838 4666 3239 4311 
Q 3641 3956 3641 3272 
Q 3641 2581 3239 2228 
Q 2838 1875 2053 1875 
L 1259 1875 
L 1259 0 
L 628 0 
L 628 4666 
z
" transform="scale(0.015625)"/>
      <path id="DejaVuSans-6d" d="M 3328 2828 
Q 3544 3216 3844 3400 
Q 4144 3584 4550 3584 
Q 5097 3584 5394 3201 
Q 5691 2819 5691 2113 
L 5691 0 
L 5113 0 
L 5113 2094 
Q 5113 2597 4934 2840 
Q 4756 3084 4391 3084 
Q 3944 3084 3684 2787 
Q 3425 2491 3425 1978 
L 3425 0 
L 2847 0 
L 2847 2094 
Q 2847 2600 2669 2842 
Q 2491 3084 2119 3084 
Q 1678 3084 1418 2786 
Q 1159 2488 1159 1978 
L 1159 0 
L 581 0 
L 581 3500 
L 1159 3500 
L 1159 2956 
Q 1356 3278 1631 3431 
Q 1906 3584 2284 3584 
Q 2666 3584 2933 3390 
Q 3200 3197 3328 2828 
z
" transform="scale(0.015625)"/>
      <path id="DejaVuSans-70" d="M 1159 525 
L 1159 -1331 
L 581 -1331 
L 581 3500 
L 1159 3500 
L 1159 2969 
Q 1341 3281 1617 3432 
Q 1894 3584 2278 3584 
Q 2916 3584 3314 3078 
Q 3713 2572 3713 1747 
Q 3713 922 3314 415 
Q 2916 -91 2278 -91 
Q 1894 -91 1617 61 
Q 1341 213 1159 525 
z
M 3116 1747 
Q 3116 2381 2855 2742 
Q 2594 3103 2138 3103 
Q 1681 3103 1420 2742 
Q 1159 2381 1159 1747 
Q 1159 1113 1420 752 
Q 1681 391 2138 391 
Q 2594 391 2855 752 
Q 3116 1113 3116 1747 
z
" transform="scale(0.015625)"/>
      <path id="DejaVuSans-74" d="M 1172 4494 
L 1172 3500 
L 2356 3500 
L 2356 3053 
L 1172 3053 
L 1172 1153 
Q 1172 725 1289 603 
Q 1406 481 1766 481 
L 2356 481 
L 2356 0 
L 1766 0 
Q 1100 0 847 248 
Q 594 497 594 1153 
L 594 3053 
L 172 3053 
L 172 3500 
L 594 3500 
L 594 4494 
L 1172 4494 
z
" transform="scale(0.015625)"/>
      <path id="DejaVuSans-20" transform="scale(0.015625)"/>
      <path id="DejaVuSans-2f" d="M 1625 4666 
L 2156 4666 
L 531 -594 
L 0 -594 
L 1625 4666 
z
" transform="scale(0.015625)"/>
     </defs>
     <use xlink:href="#DejaVuSans-50"/>
     <use xlink:href="#DejaVuSans-72" transform="translate(58.552734 0)"/>
     <use xlink:href="#DejaVuSans-6f" transform="translate(97.416016 0)"/>
     <use xlink:href="#DejaVuSans-6d" transform="translate(158.597656 0)"/>
     <use xlink:href="#DejaVuSans-70" transform="translate(256.009766 0)"/>
     <use xlink:href="#DejaVuSans-74" transform="translate(319.486328 0)"/>
     <use xlink:href="#DejaVuSans-20" transform="translate(358.695312 0)"/>
     <use xlink:href="#DejaVuSans-2f" transform="translate(390.482422 0)"/>
    </g>
    <!-- Unlock -->
    <g style="fill: #111827" transform="translate(332.314797 344.598909) scale(0.11 -0.11)">
     <defs>
      <path id="DejaVuSans-55" d="M 556 4666 
L 1191 4666 
L 1191 1831 
Q 1191 1081 1462 751 
Q 1734 422 2344 422 
Q 2950 422 3222 751 
Q 3494 1081 3494 1831 
L 3494 4666 
L 4128 4666 
L 4128 1753 
Q 4128 841 3676 375 
Q 3225 -91 2344 -91 
Q 1459 -91 1007 375 
Q 556 841 556 1753 
L 556 4666 
z
" transform="scale(0.015625)"/>
      <path id="DejaVuSans-63" d="M 3122 3366 
L 3122 2828 
Q 2878 2963 2633 3030 
Q 2388 3097 2138 3097 
Q 1578 3097 1268 2742 
Q 959 2388 959 1747 
Q 959 1106 1268 751 
Q 1578 397 2138 397 
Q 2388 397 2633 464 
Q 2878 531 3122 666 
L 3122 134 
Q 2881 22 2623 -34 
Q 2366 -91 2075 -91 
Q 1284 -91 818 406 
Q 353 903 353 1747 
Q 353 2603 823 3093 
Q 1294 3584 2113 3584 
Q 2378 3584 2631 3529 
Q 2884 3475 3122 3366 
z
" transform="scale(0.015625)"/>
      <path id="DejaVuSans-6b" d="M 581 4863 
L 1159 4863 
L 1159 1991 
L 2875 3500 
L 3609 3500 
L 1753 1863 
L 3688 0 
L 2938 0 
L 1159 1709 
L 1159 0 
L 581 0 
L 581 4863 
z
" transform="scale(0.015625)"/>
     </defs>
     <use xlink:href="#DejaVuSans-55"/>
     <use xlink:href="#DejaVuSans-6e" transform="translate(73.193359 0)"/>
     <use xlink:href="#DejaVuSans-6c" transform="translate(136.572266 0)"/>
     <use xlink:href="#DejaVuSans-6f" transform="translate(164.355469 0)"/>
     <use xlink:href="#DejaVuSans-63" transform="translate(225.537109 0)"/>
     <use xlink:href="#DejaVuSans-6b" transform="translate(280.517578 0)"/>
    </g>
   </g>
   <g id="patch_6">
    <path d="M 157.479464 197.152842 
Q 235.036754 165.0815 293.389456 107.592953 
" style="fill: none; stroke: #475569; stroke-width: 1.8; stroke-linecap: round"/>
    <path d="M 289.136384 108.975479 
L 293.389456 107.592953 
L 291.943634 111.824927 
" style="fill: none; stroke: #475569; stroke-width: 1.8; stroke-linecap: round"/>
   </g>
   <g id="text_6">
    <g id="patch_7">
     <path d="M 188.047938 144.677462 
L 232.576063 144.677462 
Q 234.376063 144.677462 234.376063 142.877462 
L 234.376063 133.199337 
Q 234.376063 131.399337 232.576063 131.399337 
L 188.047938 131.399337 
Q 186.247938 131.399337 186.247938 133.199337 
L 186.247938 142.877462 
Q 186.247938 144.677462 188.047938 144.677462 
z
" style="fill: #ffffff; opacity: 0.85"/>
    </g>
    <!-- risk rises -->
    <g style="fill: #475569" transform="translate(188.047938 140.797775) scale(0.1 -0.1)">
     <defs>
      <path id="DejaVuSans-69" d="M 603 3500 
L 1178 3500 
L 1178 0 
L 603 0 
L 603 3500 
z
M 603 4863 
L 1178 4863 
L 1178 4134 
L 603 4134 
L 603 4863 
z
" transform="scale(0.015625)"/>
      <path id="DejaVuSans-73" d="M 2834 3397 
L 2834 2853 
Q 2591 2978 2328 3040 
Q 2066 3103 1784 3103 
Q 1356 3103 1142 2972 
Q 928 2841 928 2578 
Q 928 2378 1081 2264 
Q 1234 2150 1697 2047 
L 1894 2003 
Q 2506 1872 2764 1633 
Q 3022 1394 3022 966 
Q 3022 478 2636 193 
Q 2250 -91 1575 -91 
Q 1294 -91 989 -36 
Q 684 19 347 128 
L 347 722 
Q 666 556 975 473 
Q 1284 391 1588 391 
Q 1994 391 2212 530 
Q 2431 669 2431 922 
Q 2431 1156 2273 1281 
Q 2116 1406 1581 1522 
L 1381 1569 
Q 847 1681 609 1914 
Q 372 2147 372 2553 
Q 372 3047 722 3315 
Q 1072 3584 1716 3584 
Q 2034 3584 2315 3537 
Q 2597 3491 2834 3397 
z
" transform="scale(0.015625)"/>
     </defs>
     <use xlink:href="#DejaVuSans-72"/>
     <use xlink:href="#DejaVuSans-69" transform="translate(41.113281 0)"/>
     <use xlink:href="#DejaVuSans-73" transform="translate(68.896484 0)"/>
     <use xlink:href="#DejaVuSans-6b" transform="translate(120.996094 0)"/>
     <use xlink:href="#DejaVuSans-20" transform="translate(178.90625 0)"/>
     <use xlink:href="#DejaVuSans-72" transform="translate(210.693359 0)"/>
     <use xlink:href="#DejaVuSans-69" transform="translate(251.806641 0)"/>
     <use xlink:href="#DejaVuSans-73" transform="translate(279.589844 0)"/>
     <use xlink:href="#DejaVuSans-65" transform="translate(331.689453 0)"/>
     <use xlink:href="#DejaVuSans-73" transform="translate(393.212891 0)"/>
    </g>
   </g>
   <g id="patch_8">
    <path d="M 348.950568 127.255216 
Q 246.31462 143.26742 159.063867 195.839118 
" style="fill: none; stroke: #475569; stroke-width: 1.8; stroke-linecap: round"/>
    <path d="M 163.522184 195.487817 
L 159.063867 195.839118 
L 161.457816 192.061684 
" style="fill: none; stroke: #475569; stroke-width: 1.8; stroke-linecap: round"/>
   </g>
   <g id="text_7">
    <g id="patch_9">
     <path d="M 228.788938 182.376662 
L 277.767063 182.376662 
Q 279.567063 182.376662 279.567063 180.576662 
L 279.567063 170.898537 
Q 279.567063 169.098537 277.767063 169.098537 
L 228.788938 169.098537 
Q 226.988938 169.098537 226.988938 170.898537 
L 226.988938 180.576662 
Q 226.988938 182.376662 228.788938 182.376662 
z
" style="fill: #ffffff; opacity: 0.85"/>
    </g>
    <!-- risk drops -->
    <g style="fill: #475569" transform="translate(228.788938 178.496975) scale(0.1 -0.1)">
     <use xlink:href="#DejaVuSans-72"/>
     <use xlink:href="#DejaVuSans-69" transform="translate(41.113281 0)"/>
     <use xlink:href="#DejaVuSans-73" transform="translate(68.896484 0)"/>
     <use xlink:href="#DejaVuSans-6b" transform="translate(120.996094 0)"/>
     <use xlink:href="#DejaVuSans-20" transform="translate(178.90625 0)"/>
     <use xlink:href="#DejaVuSans-64" transform="translate(210.693359 0)"/>
     <use xlink:href="#DejaVuSans-72" transform="translate(274.169922 0)"/>
     <use xlink:href="#DejaVuSans-6f" transform="translate(313.033203 0)"/>
     <use xlink:href="#DejaVuSans-70" transform="translate(374.214844 0)"/>
     <use xlink:href="#DejaVuSans-73" transform="translate(437.691406 0)"/>
    </g>
   </g>
   <g id="patch_10">
    <path d="M 407.463464 105.535158 
Q 485.020754 137.6065 543.373456 195.095047 
" style="fill: none; stroke: #475569; stroke-width: 1.8; stroke-linecap: round"/>
    <path d="M 541.927634 190.863073 
L 543.373456 195.095047 
L 539.120384 193.712521 
" style="fill: none; stroke: #475569; stroke-width: 1.8; stroke-linecap: round"/>
   </g>
   <g id="text_8">
    <g id="patch_11">
     <path d="M 469.279938 144.677462 
L 513.808063 144.677462 
Q 515.608063 144.677462 515.608063 142.877462 
L 515.608063 133.199337 
Q 515.608063 131.399337 513.808063 131.399337 
L 469.279938 131.399337 
Q 467.479938 131.399337 467.479938 133.199337 
L 467.479938 142.877462 
Q 467.479938 144.677462 469.279938 144.677462 
z
" style="fill: #ffffff; opacity: 0.85"/>
    </g>
    <!-- risk rises -->
    <g style="fill: #475569" transform="translate(469.279938 140.797775) scale(0.1 -0.1)">
     <use xlink:href="#DejaVuSans-72"/>
     <use xlink:href="#DejaVuSans-69" transform="translate(41.113281 0)"/>
     <use xlink:href="#DejaVuSans-73" transform="translate(68.896484 0)"/>
     <use xlink:href="#DejaVuSans-6b" transform="translate(120.996094 0)"/>
     <use xlink:href="#DejaVuSans-20" transform="translate(178.90625 0)"/>
     <use xlink:href="#DejaVuSans-72" transform="translate(210.693359 0)"/>
     <use xlink:href="#DejaVuSans-69" transform="translate(251.806641 0)"/>
     <use xlink:href="#DejaVuSans-73" transform="translate(279.589844 0)"/>
     <use xlink:href="#DejaVuSans-65" transform="translate(331.689453 0)"/>
     <use xlink:href="#DejaVuSans-73" transform="translate(393.212891 0)"/>
    </g>
   </g>
   <g id="patch_12">
    <path d="M 544.464921 219.145703 
Q 464.634956 176.193673 408.165442 107.870372 
" style="fill: none; stroke: #475569; stroke-width: 1.8; stroke-linecap: round"/>
    <path d="M 409.172125 112.227733 
L 408.165442 107.870372 
L 412.25534 109.679442 
" style="fill: none; stroke: #475569; stroke-width: 1.8; stroke-linecap: round"/>
   </g>
   <g id="text_9">
    <g id="patch_13">
     <path d="M 438.342656 146.895062 
L 513.497344 146.895062 
Q 515.297344 146.895062 515.297344 145.095062 
L 515.297344 135.416937 
Q 515.297344 133.616937 513.497344 133.616937 
L 438.342656 133.616937 
Q 436.542656 133.616937 436.542656 135.416937 
L 436.542656 145.095062 
Q 436.542656 146.895062 438.342656 146.895062 
z
" style="fill: #ffffff; opacity: 0.85"/>
    </g>
    <!-- unlock success -->
    <g style="fill: #475569" transform="translate(438.342656 143.015375) scale(0.1 -0.1)">
     <defs>
      <path id="DejaVuSans-75" d="M 544 1381 
L 544 3500 
L 1119 3500 
L 1119 1403 
Q 1119 906 1312 657 
Q 1506 409 1894 409 
Q 2359 409 2629 706 
Q 2900 1003 2900 1516 
L 2900 3500 
L 3475 3500 
L 3475 0 
L 2900 0 
L 2900 538 
Q 2691 219 2414 64 
Q 2138 -91 1772 -91 
Q 1169 -91 856 284 
Q 544 659 544 1381 
z
M 1991 3584 
L 1991 3584 
z
" transform="scale(0.015625)"/>
     </defs>
     <use xlink:href="#DejaVuSans-75"/>
     <use xlink:href="#DejaVuSans-6e" transform="translate(63.378906 0)"/>
     <use xlink:href="#DejaVuSans-6c" transform="translate(126.757812 0)"/>
     <use xlink:href="#DejaVuSans-6f" transform="translate(154.541016 0)"/>
     <use xlink:href="#DejaVuSans-63" transform="translate(215.722656 0)"/>
     <use xlink:href="#DejaVuSans-6b" transform="translate(270.703125 0)"/>
     <use xlink:href="#DejaVuSans-20" transform="translate(328.613281 0)"/>
     <use xlink:href="#DejaVuSans-73" transform="translate(360.400391 0)"/>
     <use xlink:href="#DejaVuSans-75" transform="translate(412.5 0)"/>
     <use xlink:href="#DejaVuSans-63" transform="translate(475.878906 0)"/>
     <use xlink:href="#DejaVuSans-63" transform="translate(530.859375 0)"/>
     <use xlink:href="#DejaVuSans-65" transform="translate(585.839844 0)"/>
     <use xlink:href="#DejaVuSans-73" transform="translate(647.363281 0)"/>
     <use xlink:href="#DejaVuSans-73" transform="translate(699.462891 0)"/>
    </g>
   </g>
   <g id="patch_14">
    <path d="M 598.934568 242.570416 
Q 496.29862 258.58262 409.047867 311.154318 
" style="fill: none; stroke: #475569; stroke-width: 1.8; stroke-linecap: round"/>
    <path d="M 413.506184 310.803017 
L 409.047867 311.154318 
L 411.441816 307.376884 
" style="fill: none; stroke: #475569; stroke-width: 1.8; stroke-linecap: round"/>
   </g>
   <g id="text_10">
    <g id="patch_15">
     <path d="M 483.189406 297.691862 
L 570.206594 297.691862 
Q 572.006594 297.691862 572.006594 295.891862 
L 572.006594 286.213737 
Q 572.006594 284.413737 570.206594 284.413737 
L 483.189406 284.413737 
Q 481.389406 284.413737 481.389406 286.213737 
L 481.389406 295.891862 
Q 481.389406 297.691862 483.189406 297.691862 
z
" style="fill: #ffffff; opacity: 0.85"/>
    </g>
    <!-- password prompt -->
    <g style="fill: #475569" transform="translate(483.189406 293.812175) scale(0.1 -0.1)">
     <defs>
      <path id="DejaVuSans-61" d="M 2194 1759 
Q 1497 1759 1228 1600 
Q 959 1441 959 1056 
Q 959 750 1161 570 
Q 1363 391 1709 391 
Q 2188 391 2477 730 
Q 2766 1069 2766 1631 
L 2766 1759 
L 2194 1759 
z
M 3341 1997 
L 3341 0 
L 2766 0 
L 2766 531 
Q 2569 213 2275 61 
Q 1981 -91 1556 -91 
Q 1019 -91 701 211 
Q 384 513 384 1019 
Q 384 1609 779 1909 
Q 1175 2209 1959 2209 
L 2766 2209 
L 2766 2266 
Q 2766 2663 2505 2880 
Q 2244 3097 1772 3097 
Q 1472 3097 1187 3025 
Q 903 2953 641 2809 
L 641 3341 
Q 956 3463 1253 3523 
Q 1550 3584 1831 3584 
Q 2591 3584 2966 3190 
Q 3341 2797 3341 1997 
z
" transform="scale(0.015625)"/>
     </defs>
     <use xlink:href="#DejaVuSans-70"/>
     <use xlink:href="#DejaVuSans-61" transform="translate(63.476562 0)"/>
     <use xlink:href="#DejaVuSans-73" transform="translate(124.755859 0)"/>
     <use xlink:href="#DejaVuSans-73" transform="translate(176.855469 0)"/>
     <use xlink:href="#DejaVuSans-77" transform="translate(228.955078 0)"/>
     <use xlink:href="#DejaVuSans-6f" transform="translate(310.742188 0)"/>
     <use xlink:href="#DejaVuSans-72" transform="translate(371.923828 0)"/>
     <use xlink:href="#DejaVuSans-64" transform="translate(411.287109 0)"/>
     <use xlink:href="#DejaVuSans-20" transform="translate(474.763672 0)"/>
     <use xlink:href="#DejaVuSans-70" transform="translate(506.550781 0)"/>
     <use xlink:href="#DejaVuSans-72" transform="translate(570.027344 0)"/>
     <use xlink:href="#DejaVuSans-6f" transform="translate(608.890625 0)"/>
     <use xlink:href="#DejaVuSans-6d" transform="translate(670.072266 0)"/>
     <use xlink:href="#DejaVuSans-70" transform="translate(767.484375 0)"/>
     <use xlink:href="#DejaVuSans-74" transform="translate(830.960938 0)"/>
    </g>
   </g>
   <g id="patch_16">
    <path d="M 349.436125 311.896111 
Q 264.610473 236.375111 159.410094 199.244957 
" style="fill: none; stroke: #475569; stroke-width: 1.8; stroke-linecap: round"/>
    <path d="M 162.516398 202.462234 
L 159.410094 199.244957 
L 163.847698 198.69028 
" style="fill: none; stroke: #475569; stroke-width: 1.8; stroke-linecap: round"/>
   </g>
   <g id="text_11">
    <g id="patch_17">
     <path d="M 221.061313 248.904662 
L 269.870688 248.904662 
Q 271.670688 248.904662 271.670688 247.104662 
L 271.670688 237.426537 
Q 271.670688 235.626537 269.870688 235.626537 
L 221.061313 235.626537 
Q 219.261313 235.626537 219.261313 237.426537 
L 219.261313 247.104662 
Q 219.261313 248.904662 221.061313 248.904662 
z
" style="fill: #ffffff; opacity: 0.85"/>
    </g>
    <!-- hold ends -->
    <g style="fill: #475569" transform="translate(221.061313 245.024975) scale(0.1 -0.1)">
     <defs>
      <path id="DejaVuSans-68" d="M 3513 2113 
L 3513 0 
L 2938 0 
L 2938 2094 
Q 2938 2591 2744 2837 
Q 2550 3084 2163 3084 
Q 1697 3084 1428 2787 
Q 1159 2491 1159 1978 
L 1159 0 
L 581 0 
L 581 4863 
L 1159 4863 
L 1159 2956 
Q 1366 3272 1645 3428 
Q 1925 3584 2291 3584 
Q 2894 3584 3203 3211 
Q 3513 2838 3513 2113 
z
" transform="scale(0.015625)"/>
     </defs>
     <use xlink:href="#DejaVuSans-68"/>
     <use xlink:href="#DejaVuSans-6f" transform="translate(63.378906 0)"/>
     <use xlink:href="#DejaVuSans-6c" transform="translate(124.560547 0)"/>
     <use xlink:href="#DejaVuSans-64" transform="translate(152.34375 0)"/>
     <use xlink:href="#DejaVuSans-20" transform="translate(215.820312 0)"/>
     <use xlink:href="#DejaVuSans-65" transform="translate(247.607422 0)"/>
     <use xlink:href="#DejaVuSans-6e" transform="translate(309.130859 0)"/>
     <use xlink:href="#DejaVuSans-64" transform="translate(372.509766 0)"/>
     <use xlink:href="#DejaVuSans-73" transform="translate(435.986328 0)"/>
    </g>
   </g>
   <g id="text_12">
    <!-- folder locked -->
    <g style="fill: #dc2626" transform="translate(568.645594 276.071375) scale(0.1 -0.1)">
     <defs>
      <path id="DejaVuSans-66" d="M 2375 4863 
L 2375 4384 
L 1825 4384 
Q 1516 4384 1395 4259 
Q 1275 4134 1275 3809 
L 1275 3500 
L 2222 3500 
L 2222 3053 
L 1275 3053 
L 1275 0 
L 697 0 
L 697 3053 
L 147 3053 
L 147 3500 
L 697 3500 
L 697 3744 
Q 697 4328 969 4595 
Q 1241 4863 1831 4863 
L 2375 4863 
z
" transform="scale(0.015625)"/>
     </defs>
     <use xlink:href="#DejaVuSans-66"/>
     <use xlink:href="#DejaVuSans-6f" transform="translate(35.205078 0)"/>
     <use xlink:href="#DejaVuSans-6c" transform="translate(96.386719 0)"/>
     <use xlink:href="#DejaVuSans-64" transform="translate(124.169922 0)"/>
     <use xlink:href="#DejaVuSans-65" transform="translate(187.646484 0)"/>
     <use xlink:href="#DejaVuSans-72" transform="translate(249.169922 0)"/>
     <use xlink:href="#DejaVuSans-20" transform="translate(290.283203 0)"/>
     <use xlink:href="#DejaVuSans-6c" transform="translate(322.070312 0)"/>
     <use xlink:href="#DejaVuSans-6f" transform="translate(349.853516 0)"/>
     <use xlink:href="#DejaVuSans-63" transform="translate(411.035156 0)"/>
     <use xlink:href="#DejaVuSans-6b" transform="translate(466.015625 0)"/>
     <use xlink:href="#DejaVuSans-65" transform="translate(520.300781 0)"/>
     <use xlink:href="#DejaVuSans-64" transform="translate(581.824219 0)"/>
    </g>
   </g>
   <g id="text_13">
    <!-- verified unlock returns to a safer state if risk remains low -->
    <g style="fill: #0f172a" transform="translate(222.093703 382.240237) scale(0.09 -0.09)">
     <defs>
      <path id="DejaVuSans-76" d="M 191 3500 
L 800 3500 
L 1894 563 
L 2988 3500 
L 3597 3500 
L 2284 0 
L 1503 0 
L 191 3500 
z
" transform="scale(0.015625)"/>
     </defs>
     <use xlink:href="#DejaVuSans-76"/>
     <use xlink:href="#DejaVuSans-65" transform="translate(59.179688 0)"/>
     <use xlink:href="#DejaVuSans-72" transform="translate(120.703125 0)"/>
     <use xlink:href="#DejaVuSans-69" transform="translate(161.816406 0)"/>
     <use xlink:href="#DejaVuSans-66" transform="translate(189.599609 0)"/>
     <use xlink:href="#DejaVuSans-69" transform="translate(224.804688 0)"/>
     <use xlink:href="#DejaVuSans-65" transform="translate(252.587891 0)"/>
     <use xlink:href="#DejaVuSans-64" transform="translate(314.111328 0)"/>
     <use xlink:href="#DejaVuSans-20" transform="translate(377.587891 0)"/>
     <use xlink:href="#DejaVuSans-75" transform="translate(409.375 0)"/>
     <use xlink:href="#DejaVuSans-6e" transform="translate(472.753906 0)"/>
     <use xlink:href="#DejaVuSans-6c" transform="translate(536.132812 0)"/>
     <use xlink:href="#DejaVuSans-6f" transform="translate(563.916016 0)"/>
     <use xlink:href="#DejaVuSans-63" transform="translate(625.097656 0)"/>
     <use xlink:href="#DejaVuSans-6b" transform="translate(680.078125 0)"/>
     <use xlink:href="#DejaVuSans-20" transform="translate(737.988281 0)"/>
     <use xlink:href="#DejaVuSans-72" transform="translate(769.775391 0)"/>
     <use xlink:href="#DejaVuSans-65" transform="translate(808.638672 0)"/>
     <use xlink:href="#DejaVuSans-74" transform="translate(870.162109 0)"/>
     <use xlink:href="#DejaVuSans-75" transform="translate(909.371094 0)"/>
     <use xlink:href="#DejaVuSans-72" transform="translate(972.75 0)"/>
     <use xlink:href="#DejaVuSans-6e" transform="translate(1012.113281 0)"/>
     <use xlink:href="#DejaVuSans-73" transform="translate(1075.492188 0)"/>
     <use xlink:href="#DejaVuSans-20" transform="translate(1127.591797 0)"/>
     <use xlink:href="#DejaVuSans-74" transform="translate(1159.378906 0)"/>
     <use xlink:href="#DejaVuSans-6f" transform="translate(1198.587891 0)"/>
     <use xlink:href="#DejaVuSans-20" transform="translate(1259.769531 0)"/>
     <use xlink:href="#DejaVuSans-61" transform="translate(1291.556641 0)"/>
     <use xlink:href="#DejaVuSans-20" transform="translate(1352.835938 0)"/>
     <use xlink:href="#DejaVuSans-73" transform="translate(1384.623047 0)"/>
     <use xlink:href="#DejaVuSans-61" transform="translate(1436.722656 0)"/>
     <use xlink:href="#DejaVuSans-66" transform="translate(1498.001953 0)"/>
     <use xlink:href="#DejaVuSans-65" transform="translate(1533.207031 0)"/>
     <use xlink:href="#DejaVuSans-72" transform="translate(1594.730469 0)"/>
     <use xlink:href="#DejaVuSans-20" transform="translate(1635.84375 0)"/>
     <use xlink:href="#DejaVuSans-73" transform="translate(1667.630859 0)"/>
     <use xlink:href="#DejaVuSans-74" transform="translate(1719.730469 0)"/>
     <use xlink:href="#DejaVuSans-61" transform="translate(1758.939453 0)"/>
     <use xlink:href="#DejaVuSans-74" transform="translate(1820.21875 0)"/>
     <use xlink:href="#DejaVuSans-65" transform="translate(1859.427734 0)"/>
     <use xlink:href="#DejaVuSans-20" transform="translate(1920.951172 0)"/>
     <use xlink:href="#DejaVuSans-69" transform="translate(1952.738281 0)"/>
     <use xlink:href="#DejaVuSans-66" transform="translate(1980.521484 0)"/>
     <use xlink:href="#DejaVuSans-20" transform="translate(2015.726562 0)"/>
     <use xlink:href="#DejaVuSans-72" transform="translate(2047.513672 0)"/>
     <use xlink:href="#DejaVuSans-69" transform="translate(2088.626953 0)"/>
     <use xlink:href="#DejaVuSans-73" transform="translate(2116.410156 0)"/>
     <use xlink:href="#DejaVuSans-6b" transform="translate(2168.509766 0)"/>
     <use xlink:href="#DejaVuSans-20" transform="translate(2226.419922 0)"/>
     <use xlink:href="#DejaVuSans-72" transform="translate(2258.207031 0)"/>
     <use xlink:href="#DejaVuSans-65" transform="translate(2297.070312 0)"/>
     <use xlink:href="#DejaVuSans-6d" transform="translate(2358.59375 0)"/>
     <use xlink:href="#DejaVuSans-61" transform="translate(2456.005859 0)"/>
     <use xlink:href="#DejaVuSans-69" transform="translate(2517.285156 0)"/>
     <use xlink:href="#DejaVuSans-6e" transform="translate(2545.068359 0)"/>
     <use xlink:href="#DejaVuSans-73" transform="translate(2608.447266 0)"/>
     <use xlink:href="#DejaVuSans-20" transform="translate(2660.546875 0)"/>
     <use xlink:href="#DejaVuSans-6c" transform="translate(2692.333984 0)"/>
     <use xlink:href="#DejaVuSans-6f" transform="translate(2720.117188 0)"/>
     <use xlink:href="#DejaVuSans-77" transform="translate(2781.298828 0)"/>
    </g>
   </g>
  </g>
 </g>
 <defs>
  <clipPath id="pef4a959b50">
   <rect x="7.2" y="7.2" width="781.2" height="443.52"/>
  </clipPath>
 </defs>
</svg>
