<?xml version="1.0" encoding="utf-8" standalone="no"?>
<!DOCTYPE svg PUBLIC "-//W3C//DTD SVG 1.1//EN"
  "http://www.w3.org/Graphics/SVG/1.1/DTD/svg11.dtd">
<svg xmlns:xlink="http://www.w3.org/1999/xlink" width="795.6pt" height="457.92pt" viewBox="0 0 795.6 457.92" xmlns="http://www.w3.org/2000/svg" version="1.1">
 <metadata>
  <rdf:RDF xmlns:dc="http://purl.org/dc/elements/1.1/" xmlns:cc="http://creativecommons.org/ns#" xmlns:rdf="http://www.w3.org/1999/02/22-rdf-syntax-ns#">
   <cc:Work>
    <dc:type rdf:resource="http://purl.org/dc/dcmitype/StillImage"/>
    <dc:date>2026-04-08T22:08:32.478148</dc:date>
    <dc:format>image/svg+xml</dc:format>
    <dc:creator>
     <cc:Agent>
      <dc:title>Matplotlib v3.10.7, https://matplotlib.org/</dc:title>
     </cc:Agent>
    </dc:creator>
   </cc:Work>
  </rdf:RDF>
 </metadata>
 <defs>
  <style type="text/css">*{stroke-linejoin: round; stroke-linecap: butt}</style>
 </defs>
 <g id="figure_1">
  <g id="patch_1">
   <path d="M 0 457.92 
L 795.6 457.92 
L 795.6 0 
L 0 0 
z
" style="fill: #ffffff"/>
  </g>
  <g id="axes_1">
   <g id="patch_2">
    <path d="M 38.448 228.96 
L 155.628 228.96 
Q 171.252 228.96 171.252 220.0896 
L 171.252 166.8672 
Q 171.252 157.9968 155.628 157.9968 
L 38.448 157.9968 
Q 22.824 157.9968 22.824 166.8672 
L 22.824 220.0896 
Q 22.824 228.96 38.448 228.96 
z
" clip-path="url(#pef20a9d910)" style="fill: #dbeafe; stroke: #1d4ed8; stroke-width: 1.8; stroke-linejoin: miter"/>
   </g>
   <g id="patch_3">
    <path d="M 179.064 228.96 
L 296.244 228.96 
Q 311.868 228.96 311.868 220.0896 
L 311.868 166.8672 
Q 311.868 157.9968 296.244 157.9968 
L 179.064 157.9968 
Q 163.44 157.9968 163.44 166.8672 
L 163.44 220.0896 
Q 163.44 228.96 179.064 228.96 
z
" clip-path="url(#pef20a9d910)" style="fill: #dcfce7; stroke: #15803d; stroke-width: 1.8; stroke-linejoin: miter"/>
   </g>
   <g id="patch_4">
    <path d="M 319.68 228.96 
L 436.86 228.96 
Q 452.484 228.96 452.484 220.0896 
L 452.484 166.8672 
Q 452.484 157.9968 436.86 157.9968 
L 319.68 157.9968 
Q 304.056 157.9968 304.056 166.8672 
L 304.056 220.0896 
Q 304.056 228.96 319.68 228.96 
z
" clip-path="url(#pef20a9d910)" style="fill: #ede9fe; stroke: #7c3aed; stroke-width: 1.8; stroke-linejoin: miter"/>
   </g>
   <g id="patch_5">
    <path d="M 460.296 228.96 
L 577.476 228.96 
Q 593.1 228.96 593.1 220.0896 
L 593.1 166.8672 
Q 593.1 157.9968 577.476 157.9968 
L 460.296 157.9968 
Q 444.672 157.9968 444.672 166.8672 
L 444.672 220.0896 
Q 444.672 228.96 460.296 228.96 
z
" clip-path="url(#pef20a9d910)" style="fill: #fef9c3; stroke: #a16207; stroke-width: 1.8; stroke-linejoin: miter"/>
   </g>
   <g id="patch_6">
    <path d="M 600.912 228.96 
L 718.092 228.96 
Q 733.716 228.96 733.716 220.0896 
L 733.716 166.8672 
Q 733.716 157.9968 718.092 157.9968 
L 600.912 157.9968 
Q 585.288 157.9968 585.288 166.8672 
L 585.288 220.0896 
Q 585.288 228.96 600.912 228.96 
z
" clip-path="url(#pef20a9d910)" style="fill: #ffe4e6; stroke: #be123c; stroke-width: 1.8; stroke-linejoin: miter"/>
   </g>
   <g id="patch_7">
    <path d="M 319.68 362.016 
L 499.356 362.016 
Q 514.98 362.016 514.98 353.1456 
L 514.98 299.9232 
Q 514.98 291.0528 499.356 291.0528 
L 319.68 291.0528 
Q 304.056 291.0528 304.056 299.9232 
L 304.056 353.1456 
Q 304.056 362.016 319.68 362.016 
z
" clip-path="url(#pef20a9d910)" style="fill: #fff7ed; stroke: #c2410c; stroke-width: 1.8; stroke-linejoin: miter"/>
   </g>
   <g id="patch_8">
    <path d="M 538.416 362.016 
L 694.656 362.016 
Q 710.28 362.016 710.28 353.1456 
L 710.28 299.9232 
Q 710.28 291.0528 694.656 291.0528 
L 538.416 291.0528 
Q 522.792 291.0528 522.792 299.9232 
L 522.792 353.1456 
Q 522.792 362.016 538.416 362.016 
z
" clip-path="url(#pef20a9d910)" style="fill: #e0f2fe; stroke: #0284c7; stroke-width: 1.8; stroke-linejoin: miter"/>
   </g>
   <g id="text_1">
    <!-- Adaptive-OS Training Pipeline -->
    <g style="fill: #1f2937" transform="translate(246.38625 38.617987) scale(0.18 -0.18)">
     <defs>
      <path id="DejaVuSans-Bold-41" d="M 3419 850 
L 1538 850 
L 1241 0 
L 31 0 
L 1759 4666 
L 3194 4666 
L 4922 0 
L 3713 0 
L 3419 850 
z
M 1838 1716 
L 3116 1716 
L 2478 3572 
L 1838 1716 
z
" transform="scale(0.015625)"/>
      <path id="DejaVuSans-Bold-64" d="M 2919 2988 
L 2919 4863 
L 4044 4863 
L 4044 0 
L 2919 0 
L 2919 506 
Q 2688 197 2409 53 
Q 2131 -91 1766 -91 
Q 1119 -91 703 423 
Q 288 938 288 1747 
Q 288 2556 703 3070 
Q 1119 3584 1766 3584 
Q 2128 3584 2408 3439 
Q 2688 3294 2919 2988 
z
M 2181 722 
Q 2541 722 2730 984 
Q 2919 1247 2919 1747 
Q 2919 2247 2730 2509 
Q 2541 2772 2181 2772 
Q 1825 2772 1636 2509 
Q 1447 2247 1447 1747 
Q 1447 1247 1636 984 
Q 1825 722 2181 722 
z
" transform="scale(0.015625)"/>
      <path id="DejaVuSans-Bold-61" d="M 2106 1575 
Q 1756 1575 1579 1456 
Q 1403 1338 1403 1106 
Q 1403 894 1545 773 
Q 1688 653 1941 653 
Q 2256 653 2472 879 
Q 2688 1106 2688 1447 
L 2688 1575 
L 2106 1575 
z
M 3816 1997 
L 3816 0 
L 2688 0 
L 2688 519 
Q 2463 200 2181 54 
Q 1900 -91 1497 -91 
Q 953 -91 614 226 
Q 275 544 275 1050 
Q 275 1666 698 1953 
Q 1122 2241 2028 2241 
L 2688 2241 
L 2688 2328 
Q 2688 2594 2478 2717 
Q 2269 2841 1825 2841 
Q 1466 2841 1156 2769 
Q 847 2697 581 2553 
L 581 3406 
Q 941 3494 1303 3539 
Q 1666 3584 2028 3584 
Q 2975 3584 3395 3211 
Q 3816 2838 3816 1997 
z
" transform="scale(0.015625)"/>
      <path id="DejaVuSans-Bold-70" d="M 1656 506 
L 1656 -1331 
L 538 -1331 
L 538 3500 
L 1656 3500 
L 1656 2988 
Q 1888 3294 2169 3439 
Q 2450 3584 2816 3584 
Q 3463 3584 3878 3070 
Q 4294 2556 4294 1747 
Q 4294 938 3878 423 
Q 3463 -91 2816 -91 
Q 2450 -91 2169 54 
Q 1888 200 1656 506 
z
M 2400 2772 
Q 2041 2772 1848 2508 
Q 1656 2244 1656 1747 
Q 1656 1250 1848 986 
Q 2041 722 2400 722 
Q 2759 722 2948 984 
Q 3138 1247 3138 1747 
Q 3138 2247 2948 2509 
Q 2759 2772 2400 2772 
z
" transform="scale(0.015625)"/>
      <path id="DejaVuSans-Bold-74" d="M 1759 4494 
L 1759 3500 
L 2913 3500 
L 2913 2700 
L 1759 2700 
L 1759 1216 
Q 1759 972 1856 886 
Q 1953 800 2241 800 
L 2816 800 
L 2816 0 
L 1856 0 
Q 1194 0 917 276 
Q 641 553 641 1216 
L 641 2700 
L 84 2700 
L 84 3500 
L 641 3500 
L 641 4494 
L 1759 4494 
z
" transform="scale(0.015625)"/>
      <path id="DejaVuSans-Bold-69" d="M 538 3500 
L 1656 3500 
L 1656 0 
L 538 0 
L 538 3500 
z
M 538 4863 
L 1656 4863 
L 1656 3950 
L 538 3950 
L 538 4863 
z
" transform="scale(0.015625)"/>
      <path id="DejaVuSans-Bold-76" d="M 97 3500 
L 1216 3500 
L 2088 1081 
L 2956 3500 
L 4078 3500 
L 2700 0 
L 1472 0 
L 97 3500 
z
" transform="scale(0.015625)"/>
      <path id="DejaVuSans-Bold-65" d="M 4031 1759 
L 4031 1441 
L 1416 1441 
Q 1456 1047 1700 850 
Q 1944 653 2381 653 
Q 2734 653 3104 758 
Q 3475 863 3866 1075 
L 3866 213 
Q 3469 63 3072 -14 
Q 2675 -91 2278 -91 
Q 1328 -91 801 392 
Q 275 875 275 1747 
Q 275 2603 792 3093 
Q 1309 3584 2216 3584 
Q 3041 3584 3536 3087 
Q 4031 2591 4031 1759 
z
M 2881 2131 
Q 2881 2450 2695 2645 
Q 2509 2841 2209 2841 
Q 1884 2841 1681 2658 
Q 1478 2475 1428 2131 
L 2881 2131 
z
" transform="scale(0.015625)"/>
      <path id="DejaVuSans-Bold-2d" d="M 347 2297 
L 2309 2297 
L 2309 1388 
L 347 1388 
L 347 2297 
z
" transform="scale(0.015625)"/>
      <path id="DejaVuSans-Bold-4f" d="M 2719 3878 
Q 2169 3878 1866 3472 
Q 1563 3066 1563 2328 
Q 1563 1594 1866 1187 
Q 2169 781 2719 781 
Q 3272 781 3575 1187 
Q 3878 1594 3878 2328 
Q 3878 3066 3575 3472 
Q 3272 3878 2719 3878 
z
M 2719 4750 
Q 3844 4750 4481 4106 
Q 5119 3463 5119 2328 
Q 5119 1197 4481 553 
Q 3844 -91 2719 -91 
Q 1597 -91 958 553 
Q 319 1197 319 2328 
Q 319 3463 958 4106 
Q 1597 4750 2719 4750 
z
" transform="scale(0.015625)"/>
      <path id="DejaVuSans-Bold-53" d="M 3834 4519 
L 3834 3531 
Q 3450 3703 3084 3790 
Q 2719 3878 2394 3878 
Q 1963 3878 1756 3759 
Q 1550 3641 1550 3391 
Q 1550 3203 1689 3098 
Q 1828 2994 2194 2919 
L 2706 2816 
Q 3484 2659 3812 2340 
Q 4141 2022 4141 1434 
Q 4141 663 3683 286 
Q 3225 -91 2284 -91 
Q 1841 -91 1394 -6 
Q 947 78 500 244 
L 500 1259 
Q 947 1022 1364 901 
Q 1781 781 2169 781 
Q 2563 781 2772 912 
Q 2981 1044 2981 1288 
Q 2981 1506 2839 1625 
Q 2697 1744 2272 1838 
L 1806 1941 
Q 1106 2091 782 2419 
Q 459 2747 459 3303 
Q 459 4000 909 4375 
Q 1359 4750 2203 4750 
Q 2588 4750 2994 4692 
Q 3400 4634 3834 4519 
z
" transform="scale(0.015625)"/>
      <path id="DejaVuSans-Bold-20" transform="scale(0.015625)"/>
      <path id="DejaVuSans-Bold-54" d="M 31 4666 
L 4331 4666 
L 4331 3756 
L 2784 3756 
L 2784 0 
L 1581 0 
L 1581 3756 
L 31 3756 
L 31 4666 
z
" transform="scale(0.015625)"/>
      <path id="DejaVuSans-Bold-72" d="M 3138 2547 
Q 2991 2616 2845 2648 
Q 2700 2681 2553 2681 
Q 2122 2681 1889 2404 
Q 1656 2128 1656 1613 
L 1656 0 
L 538 0 
L 538 3500 
L 1656 3500 
L 1656 2925 
Q 1872 3269 2151 3426 
Q 2431 3584 2822 3584 
Q 2878 3584 2943 3579 
Q 3009 3575 3134 3559 
L 3138 2547 
z
" transform="scale(0.015625)"/>
      <path id="DejaVuSans-Bold-6e" d="M 4056 2131 
L 4056 0 
L 2931 0 
L 2931 347 
L 2931 1631 
Q 2931 2084 2911 2256 
Q 2891 2428 2841 2509 
Q 2775 2619 2662 2680 
Q 2550 2741 2406 2741 
Q 2056 2741 1856 2470 
Q 1656 2200 1656 1722 
L 1656 0 
L 538 0 
L 538 3500 
L 1656 3500 
L 1656 2988 
Q 1909 3294 2193 3439 
Q 2478 3584 2822 3584 
Q 3428 3584 3742 3212 
Q 4056 2841 4056 2131 
z
" transform="scale(0.015625)"/>
      <path id="DejaVuSans-Bold-67" d="M 2919 594 
Q 2688 288 2409 144 
Q 2131 0 1766 0 
Q 1125 0 706 504 
Q 288 1009 288 1791 
Q 288 2575 706 3076 
Q 1125 3578 1766 3578 
Q 2131 3578 2409 3434 
Q 2688 3291 2919 2981 
L 2919 3500 
L 4044 3500 
L 4044 353 
Q 4044 -491 3511 -936 
Q 2978 -1381 1966 -1381 
Q 1638 -1381 1331 -1331 
Q 1025 -1281 716 -1178 
L 716 -306 
Q 1009 -475 1290 -558 
Q 1572 -641 1856 -641 
Q 2406 -641 2662 -400 
Q 2919 -159 2919 353 
L 2919 594 
z
M 2181 2772 
Q 1834 2772 1640 2515 
Q 1447 2259 1447 1791 
Q 1447 1309 1634 1061 
Q 1822 813 2181 813 
Q 2531 813 2725 1069 
Q 2919 1325 2919 1791 
Q 2919 2259 2725 2515 
Q 2531 2772 2181 2772 
z
" transform="scale(0.015625)"/>
      <path id="DejaVuSans-Bold-50" d="M 588 4666 
L 2584 4666 
Q 3475 4666 3951 4270 
Q 4428 3875 4428 3144 
Q 4428 2409 3951 2014 
Q 3475 1619 2584 1619 
L 1791 1619 
L 1791 0 
L 588 0 
L 588 4666 
z
M 1791 3794 
L 1791 2491 
L 2456 2491 
Q 2806 2491 2997 2661 
Q 3188 2831 3188 3144 
Q 3188 3456 2997 3625 
Q 2806 3794 2456 3794 
L 1791 3794 
z
" transform="scale(0.015625)"/>
      <path id="DejaVuSans-Bold-6c" d="M 538 4863 
L 1656 4863 
L 1656 0 
L 538 0 
L 538 4863 
z
" transform="scale(0.015625)"/>
     </defs>
     <use xlink:href="#DejaVuSans-Bold-41"/>
     <use xlink:href="#DejaVuSans-Bold-64" transform="translate(77.392578 0)"/>
     <use xlink:href="#DejaVuSans-Bold-61" transform="translate(148.974609 0)"/>
     <use xlink:href="#DejaVuSans-Bold-70" transform="translate(216.455078 0)"/>
     <use xlink:href="#DejaVuSans-Bold-74" transform="translate(288.037109 0)"/>
     <use xlink:href="#DejaVuSans-Bold-69" transform="translate(335.839844 0)"/>
     <use xlink:href="#DejaVuSans-Bold-76" transform="translate(370.117188 0)"/>
     <use xlink:href="#DejaVuSans-Bold-65" transform="translate(435.302734 0)"/>
     <use xlink:href="#DejaVuSans-Bold-2d" transform="translate(503.125 0)"/>
     <use xlink:href="#DejaVuSans-Bold-4f" transform="translate(544.628906 0)"/>
     <use xlink:href="#DejaVuSans-Bold-53" transform="translate(629.638672 0)"/>
     <use xlink:href="#DejaVuSans-Bold-20" transform="translate(701.660156 0)"/>
     <use xlink:href="#DejaVuSans-Bold-54" transform="translate(736.474609 0)"/>
     <use xlink:href="#DejaVuSans-Bold-72" transform="translate(793.6875 0)"/>
     <use xlink:href="#DejaVuSans-Bold-61" transform="translate(843.003906 0)"/>
     <use xlink:href="#DejaVuSans-Bold-69" transform="translate(910.484375 0)"/>
     <use xlink:href="#DejaVuSans-Bold-6e" transform="translate(944.761719 0)"/>
     <use xlink:href="#DejaVuSans-Bold-69" transform="translate(1015.953125 0)"/>
     <use xlink:href="#DejaVuSans-Bold-6e" transform="translate(1050.230469 0)"/>
     <use xlink:href="#DejaVuSans-Bold-67" transform="translate(1121.421875 0)"/>
     <use xlink:href="#DejaVuSans-Bold-20" transform="translate(1193.003906 0)"/>
     <use xlink:href="#DejaVuSans-Bold-50" transform="translate(1227.818359 0)"/>
     <use xlink:href="#DejaVuSans-Bold-69" transform="translate(1301.109375 0)"/>
     <use xlink:href="#DejaVuSans-Bold-70" transform="translate(1335.386719 0)"/>
     <use xlink:href="#DejaVuSans-Bold-65" transform="translate(1406.96875 0)"/>
     <use xlink:href="#DejaVuSans-Bold-6c" transform="translate(1474.791016 0)"/>
     <use xlink:href="#DejaVuSans-Bold-69" transform="translate(1509.068359 0)"/>
     <use xlink:href="#DejaVuSans-Bold-6e" transform="translate(1543.345703 0)"/>
     <use xlink:href="#DejaVuSans-Bold-65" transform="translate(1614.537109 0)"/>
    </g>
   </g>
   <g id="text_2">
    <!-- telemetry_logs.json -->
    <g style="fill: #111827" transform="translate(43.17925 196.360744) scale(0.11 -0.11)">
     <defs>
      <path id="DejaVuSans-74" d="M 1172 4494 
L 1172 3500 
L 2356 3500 
L 2356 3053 
L 1172 3053 
L 1172 1153 
Q 1172 725 1289 603 
Q 1406 481 1766 481 
L 2356 481 
L 2356 0 
L 1766 0 
Q 1100 0 847 248 
Q 594 497 594 1153 
L 594 3053 
L 172 3053 
L 172 3500 
L 594 3500 
L 594 4494 
L 1172 4494 
z
" transform="scale(0.015625)"/>
      <path id="DejaVuSans-65" d="M 3597 1894 
L 3597 1613 
L 953 1613 
Q 991 1019 1311 708 
Q 1631 397 2203 397 
Q 2534 397 2845 478 
Q 3156 559 3463 722 
L 3463 178 
Q 3153 47 2828 -22 
Q 2503 -91 2169 -91 
Q 1331 -91 842 396 
Q 353 884 353 1716 
Q 353 2575 817 3079 
Q 1281 3584 2069 3584 
Q 2775 3584 3186 3129 
Q 3597 2675 3597 1894 
z
M 3022 2063 
Q 3016 2534 2758 2815 
Q 2500 3097 2075 3097 
Q 1594 3097 1305 2825 
Q 1016 2553 972 2059 
L 3022 2063 
z
" transform="scale(0.015625)"/>
      <path id="DejaVuSans-6c" d="M 603 4863 
L 1178 4863 
L 1178 0 
L 603 0 
L 603 4863 
z
" transform="scale(0.015625)"/>
      <path id="DejaVuSans-6d" d="M 3328 2828 
Q 3544 3216 3844 3400 
Q 4144 3584 4550 3584 
Q 5097 3584 5394 3201 
Q 5691 2819 5691 2113 
L 5691 0 
L 5113 0 
L 5113 2094 
Q 5113 2597 4934 2840 
Q 4756 3084 4391 3084 
Q 3944 3084 3684 2787 
Q 3425 2491 3425 1978 
L 3425 0 
L 2847 0 
L 2847 2094 
Q 2847 2600 2669 2842 
Q 2491 3084 2119 3084 
Q 1678 3084 1418 2786 
Q 1159 2488 1159 1978 
L 1159 0 
L 581 0 
L 581 3500 
L 1159 3500 
L 1159 2956 
Q 1356 3278 1631 3431 
Q 1906 3584 2284 3584 
Q 2666 3584 2933 3390 
Q 3200 3197 3328 2828 
z
" transform="scale(0.015625)"/>
      <path id="DejaVuSans-72" d="M 2631 2963 
Q 2534 3019 2420 3045 
Q 2306 3072 2169 3072 
Q 1681 3072 1420 2755 
Q 1159 2438 1159 1844 
L 1159 0 
L 581 0 
L 581 3500 
L 1159 3500 
L 1159 2956 
Q 1341 3275 1631 3429 
Q 1922 3584 2338 3584 
Q 2397 3584 2469 3576 
Q 2541 3569 2628 3553 
L 2631 2963 
z
" transform="scale(0.015625)"/>
      <path id="DejaVuSans-79" d="M 2059 -325 
Q 1816 -950 1584 -1140 
Q 1353 -1331 966 -1331 
L 506 -1331 
L 506 -850 
L 844 -850 
Q 1081 -850 1212 -737 
Q 1344 -625 1503 -206 
L 1606 56 
L 191 3500 
L 800 3500 
L 1894 763 
L 2988 3500 
L 3597 3500 
L 2059 -325 
z
" transform="scale(0.015625)"/>
      <path id="DejaVuSans-5f" d="M 3263 -1063 
L 3263 -1509 
L -63 -1509 
L -63 -1063 
L 3263 -1063 
z
" transform="scale(0.015625)"/>
      <path id="DejaVuSans-6f" d="M 1959 3097 
Q 1497 3097 1228 2736 
Q 959 2375 959 1747 
Q 959 1119 1226 758 
Q 1494 397 1959 397 
Q 2419 397 2687 759 
Q 2956 1122 2956 1747 
Q 2956 2369 2687 2733 
Q 2419 3097 1959 3097 
z
M 1959 3584 
Q 2709 3584 3137 3096 
Q 3566 2609 3566 1747 
Q 3566 888 3137 398 
Q 2709 -91 1959 -91 
Q 1206 -91 779 398 
Q 353 888 353 1747 
Q 353 2609 779 3096 
Q 1206 3584 1959 3584 
z
" transform="scale(0.015625)"/>
      <path id="DejaVuSans-67" d="M 2906 1791 
Q 2906 2416 2648 2759 
Q 2391 3103 1925 3103 
Q 1463 3103 1205 2759 
Q 947 2416 947 1791 
Q 947 1169 1205 825 
Q 1463 481 1925 481 
Q 2391 481 2648 825 
Q 2906 1169 2906 1791 
z
M 3481 434 
Q 3481 -459 3084 -895 
Q 2688 -1331 1869 -1331 
Q 1566 -1331 1297 -1286 
Q 1028 -1241 775 -1147 
L 775 -588 
Q 1028 -725 1275 -790 
Q 1522 -856 1778 -856 
Q 2344 -856 2625 -561 
Q 2906 -266 2906 331 
L 2906 616 
Q 2728 306 2450 153 
Q 2172 0 1784 0 
Q 1141 0 747 490 
Q 353 981 353 1791 
Q 353 2603 747 3093 
Q 1141 3584 1784 3584 
Q 2172 3584 2450 3431 
Q 2728 3278 2906 2969 
L 2906 3500 
L 3481 3500 
L 3481 434 
z
" transform="scale(0.015625)"/>
      <path id="DejaVuSans-73" d="M 2834 3397 
L 2834 2853 
Q 2591 2978 2328 3040 
Q 2066 3103 1784 3103 
Q 1356 3103 1142 2972 
Q 928 2841 928 2578 
Q 928 2378 1081 2264 
Q 1234 2150 1697 2047 
L 1894 2003 
Q 2506 1872 2764 1633 
Q 3022 1394 3022 966 
Q 3022 478 2636 193 
Q 2250 -91 1575 -91 
Q 1294 -91 989 -36 
Q 684 19 347 128 
L 347 722 
Q 666 556 975 473 
Q 1284 391 1588 391 
Q 1994 391 2212 530 
Q 2431 669 2431 922 
Q 2431 1156 2273 1281 
Q 2116 1406 1581 1522 
L 1381 1569 
Q 847 1681 609 1914 
Q 372 2147 372 2553 
Q 372 3047 722 3315 
Q 1072 3584 1716 3584 
Q 2034 3584 2315 3537 
Q 2597 3491 2834 3397 
z
" transform="scale(0.015625)"/>
      <path id="DejaVuSans-2e" d="M 684 794 
L 1344 794 
L 1344 0 
L 684 0 
L 684 794 
z
" transform="scale(0.015625)"/>
      <path id="DejaVuSans-6a" d="M 603 3500 
L 1178 3500 
L 1178 -63 
Q 1178 -731 923 -1031 
Q 669 -1331 103 -1331 
L -116 -1331 
L -116 -844 
L 38 -844 
Q 366 -844 484 -692 
Q 603 -541 603 -63 
L 603 3500 
z
M 603 4863 
L 1178 4863 
L 1178 4134 
L 603 4134 
L 603 4863 
z
" transform="scale(0.015625)"/>
      <path id="DejaVuSans-6e" d="M 3513 2113 
L 3513 0 
L 2938 0 
L 2938 2094 
Q 2938 2591 2744 2837 
Q 2550 3084 2163 3084 
Q 1697 3084 1428 2787 
Q 1159 2491 1159 1978 
L 1159 0 
L 581 0 
L 581 3500 
L 1159 3500 
L 1159 2956 
Q 1366 3272 1645 3428 
Q 1925 3584 2291 3584 
Q 2894 3584 3203 3211 
Q 3513 2838 3513 2113 
z
" transform="scale(0.015625)"/>
     </defs>
     <use xlink:href="#DejaVuSans-74"/>
     <use xlink:href="#DejaVuSans-65" transform="translate(39.208984 0)"/>
     <use xlink:href="#DejaVuSans-6c" transform="translate(100.732422 0)"/>
     <use xlink:href="#DejaVuSans-65" transform="translate(128.515625 0)"/>
     <use xlink:href="#DejaVuSans-6d" transform="translate(190.039062 0)"/>
     <use xlink:href="#DejaVuSans-65" transform="translate(287.451172 0)"/>
     <use xlink:href="#DejaVuSans-74" transform="translate(348.974609 0)"/>
     <use xlink:href="#DejaVuSans-72" transform="translate(388.183594 0)"/>
     <use xlink:href="#DejaVuSans-79" transform="translate(429.296875 0)"/>
     <use xlink:href="#DejaVuSans-5f" transform="translate(488.476562 0)"/>
     <use xlink:href="#DejaVuSans-6c" transform="translate(538.476562 0)"/>
     <use xlink:href="#DejaVuSans-6f" transform="translate(566.259766 0)"/>
     <use xlink:href="#DejaVuSans-67" transform="translate(627.441406 0)"/>
     <use xlink:href="#DejaVuSans-73" transform="translate(690.917969 0)"/>
     <use xlink:href="#DejaVuSans-2e" transform="translate(743.017578 0)"/>
     <use xlink:href="#DejaVuSans-6a" transform="translate(774.804688 0)"/>
     <use xlink:href="#DejaVuSans-73" transform="translate(802.587891 0)"/>
     <use xlink:href="#DejaVuSans-6f" transform="translate(854.6875 0)"/>
     <use xlink:href="#DejaVuSans-6e" transform="translate(915.869141 0)"/>
    </g>
   </g>
   <g id="text_3">
    <!-- Load and slice -->
    <g style="fill: #111827" transform="translate(198.285172 190.354916) scale(0.11 -0.11)">
     <defs>
      <path id="DejaVuSans-4c" d="M 628 4666 
L 1259 4666 
L 1259 531 
L 3531 531 
L 3531 0 
L 628 0 
L 628 4666 
z
" transform="scale(0.015625)"/>
      <path id="DejaVuSans-61" d="M 2194 1759 
Q 1497 1759 1228 1600 
Q 959 1441 959 1056 
Q 959 750 1161 570 
Q 1363 391 1709 391 
Q 2188 391 2477 730 
Q 2766 1069 2766 1631 
L 2766 1759 
L 2194 1759 
z
M 3341 1997 
L 3341 0 
L 2766 0 
L 2766 531 
Q 2569 213 2275 61 
Q 1981 -91 1556 -91 
Q 1019 -91 701 211 
Q 384 513 384 1019 
Q 384 1609 779 1909 
Q 1175 2209 1959 2209 
L 2766 2209 
L 2766 2266 
Q 2766 2663 2505 2880 
Q 2244 3097 1772 3097 
Q 1472 3097 1187 3025 
Q 903 2953 641 2809 
L 641 3341 
Q 956 3463 1253 3523 
Q 1550 3584 1831 3584 
Q 2591 3584 2966 3190 
Q 3341 2797 3341 1997 
z
" transform="scale(0.015625)"/>
      <path id="DejaVuSans-64" d="M 2906 2969 
L 2906 4863 
L 3481 4863 
L 3481 0 
L 2906 0 
L 2906 525 
Q 2725 213 2448 61 
Q 2172 -91 1784 -91 
Q 1150 -91 751 415 
Q 353 922 353 1747 
Q 353 2572 751 3078 
Q 1150 3584 1784 3584 
Q 2172 3584 2448 3432 
Q 2725 3281 2906 2969 
z
M 947 1747 
Q 947 1113 1208 752 
Q 1469 391 1925 391 
Q 2381 391 2643 752 
Q 2906 1113 2906 1747 
Q 2906 2381 2643 2742 
Q 2381 3103 1925 3103 
Q 1469 3103 1208 2742 
Q 947 2381 947 1747 
z
" transform="scale(0.015625)"/>
      <path id="DejaVuSans-20" transform="scale(0.015625)"/>
      <path id="DejaVuSans-69" d="M 603 3500 
L 1178 3500 
L 1178 0 
L 603 0 
L 603 3500 
z
M 603 4863 
L 1178 4863 
L 1178 4134 
L 603 4134 
L 603 4863 
z
" transform="scale(0.015625)"/>
      <path id="DejaVuSans-63" d="M 3122 3366 
L 3122 2828 
Q 2878 2963 2633 3030 
Q 2388 3097 2138 3097 
Q 1578 3097 1268 2742 
Q 959 2388 959 1747 
Q 959 1106 1268 751 
Q 1578 397 2138 397 
Q 2388 397 2633 464 
Q 2878 531 3122 666 
L 3122 134 
Q 2881 22 2623 -34 
Q 2366 -91 2075 -91 
Q 1284 -91 818 406 
Q 353 903 353 1747 
Q 353 2603 823 3093 
Q 1294 3584 2113 3584 
Q 2378 3584 2631 3529 
Q 2884 3475 3122 3366 
z
" transform="scale(0.015625)"/>
     </defs>
     <use xlink:href="#DejaVuSans-4c"/>
     <use xlink:href="#DejaVuSans-6f" transform="translate(53.962891 0)"/>
     <use xlink:href="#DejaVuSans-61" transform="translate(115.144531 0)"/>
     <use xlink:href="#DejaVuSans-64" transform="translate(176.423828 0)"/>
     <use xlink:href="#DejaVuSans-20" transform="translate(239.900391 0)"/>
     <use xlink:href="#DejaVuSans-61" transform="translate(271.6875 0)"/>
     <use xlink:href="#DejaVuSans-6e" transform="translate(332.966797 0)"/>
     <use xlink:href="#DejaVuSans-64" transform="translate(396.345703 0)"/>
     <use xlink:href="#DejaVuSans-20" transform="translate(459.822266 0)"/>
     <use xlink:href="#DejaVuSans-73" transform="translate(491.609375 0)"/>
     <use xlink:href="#DejaVuSans-6c" transform="translate(543.708984 0)"/>
     <use xlink:href="#DejaVuSans-69" transform="translate(571.492188 0)"/>
     <use xlink:href="#DejaVuSans-63" transform="translate(599.275391 0)"/>
     <use xlink:href="#DejaVuSans-65" transform="translate(654.255859 0)"/>
    </g>
    <!-- 10-step sequences -->
    <g style="fill: #111827" transform="translate(185.655797 202.672509) scale(0.11 -0.11)">
     <defs>
      <path id="DejaVuSans-31" d="M 794 531 
L 1825 531 
L 1825 4091 
L 703 3866 
L 703 4441 
L 1819 4666 
L 2450 4666 
L 2450 531 
L 3481 531 
L 3481 0 
L 794 0 
L 794 531 
z
" transform="scale(0.015625)"/>
      <path id="DejaVuSans-30" d="M 2034 4250 
Q 1547 4250 1301 3770 
Q 1056 3291 1056 2328 
Q 1056 1369 1301 889 
Q 1547 409 2034 409 
Q 2525 409 2770 889 
Q 3016 1369 3016 2328 
Q 3016 3291 2770 3770 
Q 2525 4250 2034 4250 
z
M 2034 4750 
Q 2819 4750 3233 4129 
Q 3647 3509 3647 2328 
Q 3647 1150 3233 529 
Q 2819 -91 2034 -91 
Q 1250 -91 836 529 
Q 422 1150 422 2328 
Q 422 3509 836 4129 
Q 1250 4750 2034 4750 
z
" transform="scale(0.015625)"/>
      <path id="DejaVuSans-2d" d="M 313 2009 
L 1997 2009 
L 1997 1497 
L 313 1497 
L 313 2009 
z
" transform="scale(0.015625)"/>
      <path id="DejaVuSans-70" d="M 1159 525 
L 1159 -1331 
L 581 -1331 
L 581 3500 
L 1159 3500 
L 1159 2969 
Q 1341 3281 1617 3432 
Q 1894 3584 2278 3584 
Q 2916 3584 3314 3078 
Q 3713 2572 3713 1747 
Q 3713 922 3314 415 
Q 2916 -91 2278 -91 
Q 1894 -91 1617 61 
Q 1341 213 1159 525 
z
M 3116 1747 
Q 3116 2381 2855 2742 
Q 2594 3103 2138 3103 
Q 1681 3103 1420 2742 
Q 1159 2381 1159 1747 
Q 1159 1113 1420 752 
Q 1681 391 2138 391 
Q 2594 391 2855 752 
Q 3116 1113 3116 1747 
z
" transform="scale(0.015625)"/>
      <path id="DejaVuSans-71" d="M 947 1747 
Q 947 1113 1208 752 
Q 1469 391 1925 391 
Q 2381 391 2643 752 
Q 2906 1113 2906 1747 
Q 2906 2381 2643 2742 
Q 2381 3103 1925 3103 
Q 1469 3103 1208 2742 
Q 947 2381 947 1747 
z
M 2906 525 
Q 2725 213 2448 61 
Q 2172 -91 1784 -91 
Q 1150 -91 751 415 
Q 353 922 353 1747 
Q 353 2572 751 3078 
Q 1150 3584 1784 3584 
Q 2172 3584 2448 3432 
Q 2725 3281 2906 2969 
L 2906 3500 
L 3481 3500 
L 3481 -1331 
L 2906 -1331 
L 2906 525 
z
" transform="scale(0.015625)"/>
      <path id="DejaVuSans-75" d="M 544 1381 
L 544 3500 
L 1119 3500 
L 1119 1403 
Q 1119 906 1312 657 
Q 1506 409 1894 409 
Q 2359 409 2629 706 
Q 2900 1003 2900 1516 
L 2900 3500 
L 3475 3500 
L 3475 0 
L 2900 0 
L 2900 538 
Q 2691 219 2414 64 
Q 2138 -91 1772 -91 
Q 1169 -91 856 284 
Q 544 659 544 1381 
z
M 1991 3584 
L 1991 3584 
z
" transform="scale(0.015625)"/>
     </defs>
     <use xlink:href="#DejaVuSans-31"/>
     <use xlink:href="#DejaVuSans-30" transform="translate(63.623047 0)"/>
     <use xlink:href="#DejaVuSans-2d" transform="translate(127.246094 0)"/>
     <use xlink:href="#DejaVuSans-73" transform="translate(163.330078 0)"/>
     <use xlink:href="#DejaVuSans-74" transform="translate(215.429688 0)"/>
     <use xlink:href="#DejaVuSans-65" transform="translate(254.638672 0)"/>
     <use xlink:href="#DejaVuSans-70" transform="translate(316.162109 0)"/>
     <use xlink:href="#DejaVuSans-20" transform="translate(379.638672 0)"/>
     <use xlink:href="#DejaVuSans-73" transform="translate(411.425781 0)"/>
     <use xlink:href="#DejaVuSans-65" transform="translate(463.525391 0)"/>
     <use xlink:href="#DejaVuSans-71" transform="translate(525.048828 0)"/>
     <use xlink:href="#DejaVuSans-75" transform="translate(588.525391 0)"/>
     <use xlink:href="#DejaVuSans-65" transform="translate(651.904297 0)"/>
     <use xlink:href="#DejaVuSans-6e" transform="translate(713.427734 0)"/>
     <use xlink:href="#DejaVuSans-63" transform="translate(776.806641 0)"/>
     <use xlink:href="#DejaVuSans-65" transform="translate(831.787109 0)"/>
     <use xlink:href="#DejaVuSans-73" transform="translate(893.310547 0)"/>
    </g>
   </g>
   <g id="text_4">
    <!-- Preprocess -->
    <g style="fill: #111827" transform="translate(348.395547 190.354916) scale(0.11 -0.11)">
     <defs>
      <path id="DejaVuSans-50" d="M 1259 4147 
L 1259 2394 
L 2053 2394 
Q 2494 2394 2734 2622 
Q 2975 2850 2975 3272 
Q 2975 3691 2734 3919 
Q 2494 4147 2053 4147 
L 1259 4147 
z
M 628 4666 
L 2053 4666 
Q 2838 4666 3239 4311 
Q 3641 3956 3641 3272 
Q 3641 2581 3239 2228 
Q 2838 1875 2053 1875 
L 1259 1875 
L 1259 0 
L 628 0 
L 628 4666 
z
" transform="scale(0.015625)"/>
     </defs>
     <use xlink:href="#DejaVuSans-50"/>
     <use xlink:href="#DejaVuSans-72" transform="translate(58.552734 0)"/>
     <use xlink:href="#DejaVuSans-65" transform="translate(97.416016 0)"/>
     <use xlink:href="#DejaVuSans-70" transform="translate(158.939453 0)"/>
     <use xlink:href="#DejaVuSans-72" transform="translate(222.416016 0)"/>
     <use xlink:href="#DejaVuSans-6f" transform="translate(261.279297 0)"/>
     <use xlink:href="#DejaVuSans-63" transform="translate(322.460938 0)"/>
     <use xlink:href="#DejaVuSans-65" transform="translate(377.441406 0)"/>
     <use xlink:href="#DejaVuSans-73" transform="translate(438.964844 0)"/>
     <use xlink:href="#DejaVuSans-73" transform="translate(491.064453 0)"/>
    </g>
    <!-- features -->
    <g style="fill: #111827" transform="translate(355.550703 202.672509) scale(0.11 -0.11)">
     <defs>
      <path id="DejaVuSans-66" d="M 2375 4863 
L 2375 4384 
L 1825 4384 
Q 1516 4384 1395 4259 
Q 1275 4134 1275 3809 
L 1275 3500 
L 2222 3500 
L 2222 3053 
L 1275 3053 
L 1275 0 
L 697 0 
L 697 3053 
L 147 3053 
L 147 3500 
L 697 3500 
L 697 3744 
Q 697 4328 969 4595 
Q 1241 4863 1831 4863 
L 2375 4863 
z
" transform="scale(0.015625)"/>
     </defs>
     <use xlink:href="#DejaVuSans-66"/>
     <use xlink:href="#DejaVuSans-65" transform="translate(35.205078 0)"/>
     <use xlink:href="#DejaVuSans-61" transform="translate(96.728516 0)"/>
     <use xlink:href="#DejaVuSans-74" transform="translate(158.007812 0)"/>
     <use xlink:href="#DejaVuSans-75" transform="translate(197.216797 0)"/>
     <use xlink:href="#DejaVuSans-72" transform="translate(260.595703 0)"/>
     <use xlink:href="#DejaVuSans-65" transform="translate(299.458984 0)"/>
     <use xlink:href="#DejaVuSans-73" transform="translate(360.982422 0)"/>
    </g>
   </g>
   <g id="text_5">
    <!-- Create heuristic -->
    <g style="fill: #111827" transform="translate(475.14725 190.354916) scale(0.11 -0.11)">
     <defs>
      <path id="DejaVuSans-43" d="M 4122 4306 
L 4122 3641 
Q 3803 3938 3442 4084 
Q 3081 4231 2675 4231 
Q 1875 4231 1450 3742 
Q 1025 3253 1025 2328 
Q 1025 1406 1450 917 
Q 1875 428 2675 428 
Q 3081 428 3442 575 
Q 3803 722 4122 1019 
L 4122 359 
Q 3791 134 3420 21 
Q 3050 -91 2638 -91 
Q 1578 -91 968 557 
Q 359 1206 359 2328 
Q 359 3453 968 4101 
Q 1578 4750 2638 4750 
Q 3056 4750 3426 4639 
Q 3797 4528 4122 4306 
z
" transform="scale(0.015625)"/>
      <path id="DejaVuSans-68" d="M 3513 2113 
L 3513 0 
L 2938 0 
L 2938 2094 
Q 2938 2591 2744 2837 
Q 2550 3084 2163 3084 
Q 1697 3084 1428 2787 
Q 1159 2491 1159 1978 
L 1159 0 
L 581 0 
L 581 4863 
L 1159 4863 
L 1159 2956 
Q 1366 3272 1645 3428 
Q 1925 3584 2291 3584 
Q 2894 3584 3203 3211 
Q 3513 2838 3513 2113 
z
" transform="scale(0.015625)"/>
     </defs>
     <use xlink:href="#DejaVuSans-43"/>
     <use xlink:href="#DejaVuSans-72" transform="translate(69.824219 0)"/>
     <use xlink:href="#DejaVuSans-65" transform="translate(108.6875 0)"/>
     <use xlink:href="#DejaVuSans-61" transform="translate(170.210938 0)"/>
     <use xlink:href="#DejaVuSans-74" transform="translate(231.490234 0)"/>
     <use xlink:href="#DejaVuSans-65" transform="translate(270.699219 0)"/>
     <use xlink:href="#DejaVuSans-20" transform="translate(332.222656 0)"/>
     <use xlink:href="#DejaVuSans-68" transform="translate(364.009766 0)"/>
     <use xlink:href="#DejaVuSans-65" transform="translate(427.388672 0)"/>
     <use xlink:href="#DejaVuSans-75" transform="translate(488.912109 0)"/>
     <use xlink:href="#DejaVuSans-72" transform="translate(552.291016 0)"/>
     <use xlink:href="#DejaVuSans-69" transform="translate(593.404297 0)"/>
     <use xlink:href="#DejaVuSans-73" transform="translate(621.1875 0)"/>
     <use xlink:href="#DejaVuSans-74" transform="translate(673.287109 0)"/>
     <use xlink:href="#DejaVuSans-69" transform="translate(712.496094 0)"/>
     <use xlink:href="#DejaVuSans-63" transform="translate(740.279297 0)"/>
    </g>
    <!-- labels -->
    <g style="fill: #111827" transform="translate(502.718578 202.672509) scale(0.11 -0.11)">
     <defs>
      <path id="DejaVuSans-62" d="M 3116 1747 
Q 3116 2381 2855 2742 
Q 2594 3103 2138 3103 
Q 1681 3103 1420 2742 
Q 1159 2381 1159 1747 
Q 1159 1113 1420 752 
Q 1681 391 2138 391 
Q 2594 391 2855 752 
Q 3116 1113 3116 1747 
z
M 1159 2969 
Q 1341 3281 1617 3432 
Q 1894 3584 2278 3584 
Q 2916 3584 3314 3078 
Q 3713 2572 3713 1747 
Q 3713 922 3314 415 
Q 2916 -91 2278 -91 
Q 1894 -91 1617 61 
Q 1341 213 1159 525 
L 1159 0 
L 581 0 
L 581 4863 
L 1159 4863 
L 1159 2969 
z
" transform="scale(0.015625)"/>
     </defs>
     <use xlink:href="#DejaVuSans-6c"/>
     <use xlink:href="#DejaVuSans-61" transform="translate(27.783203 0)"/>
     <use xlink:href="#DejaVuSans-62" transform="translate(89.0625 0)"/>
     <use xlink:href="#DejaVuSans-65" transform="translate(152.539062 0)"/>
     <use xlink:href="#DejaVuSans-6c" transform="translate(214.0625 0)"/>
     <use xlink:href="#DejaVuSans-73" transform="translate(241.845703 0)"/>
    </g>
   </g>
   <g id="text_6">
    <!-- Train -->
    <g style="fill: #111827" transform="translate(646.308875 190.354916) scale(0.11 -0.11)">
     <defs>
      <path id="DejaVuSans-54" d="M -19 4666 
L 3928 4666 
L 3928 4134 
L 2272 4134 
L 2272 0 
L 1638 0 
L 1638 4134 
L -19 4134 
L -19 4666 
z
" transform="scale(0.015625)"/>
     </defs>
     <use xlink:href="#DejaVuSans-54"/>
     <use xlink:href="#DejaVuSans-72" transform="translate(46.333984 0)"/>
     <use xlink:href="#DejaVuSans-61" transform="translate(87.447266 0)"/>
     <use xlink:href="#DejaVuSans-69" transform="translate(148.726562 0)"/>
     <use xlink:href="#DejaVuSans-6e" transform="translate(176.509766 0)"/>
    </g>
    <!-- ContextLSTM -->
    <g style="fill: #111827" transform="translate(623.293953 202.672509) scale(0.11 -0.11)">
     <defs>
      <path id="DejaVuSans-78" d="M 3513 3500 
L 2247 1797 
L 3578 0 
L 2900 0 
L 1881 1375 
L 863 0 
L 184 0 
L 1544 1831 
L 300 3500 
L 978 3500 
L 1906 2253 
L 2834 3500 
L 3513 3500 
z
" transform="scale(0.015625)"/>
      <path id="DejaVuSans-53" d="M 3425 4513 
L 3425 3897 
Q 3066 4069 2747 4153 
Q 2428 4238 2131 4238 
Q 1616 4238 1336 4038 
Q 1056 3838 1056 3469 
Q 1056 3159 1242 3001 
Q 1428 2844 1947 2747 
L 2328 2669 
Q 3034 2534 3370 2195 
Q 3706 1856 3706 1288 
Q 3706 609 3251 259 
Q 2797 -91 1919 -91 
Q 1588 -91 1214 -16 
Q 841 59 441 206 
L 441 856 
Q 825 641 1194 531 
Q 1563 422 1919 422 
Q 2459 422 2753 634 
Q 3047 847 3047 1241 
Q 3047 1584 2836 1778 
Q 2625 1972 2144 2069 
L 1759 2144 
Q 1053 2284 737 2584 
Q 422 2884 422 3419 
Q 422 4038 858 4394 
Q 1294 4750 2059 4750 
Q 2388 4750 2728 4690 
Q 3069 4631 3425 4513 
z
" transform="scale(0.015625)"/>
      <path id="DejaVuSans-4d" d="M 628 4666 
L 1569 4666 
L 2759 1491 
L 3956 4666 
L 4897 4666 
L 4897 0 
L 4281 0 
L 4281 4097 
L 3078 897 
L 2444 897 
L 1241 4097 
L 1241 0 
L 628 0 
L 628 4666 
z
" transform="scale(0.015625)"/>
     </defs>
     <use xlink:href="#DejaVuSans-43"/>
     <use xlink:href="#DejaVuSans-6f" transform="translate(69.824219 0)"/>
     <use xlink:href="#DejaVuSans-6e" transform="translate(131.005859 0)"/>
     <use xlink:href="#DejaVuSans-74" transform="translate(194.384766 0)"/>
     <use xlink:href="#DejaVuSans-65" transform="translate(233.59375 0)"/>
     <use xlink:href="#DejaVuSans-78" transform="translate(293.367188 0)"/>
     <use xlink:href="#DejaVuSans-74" transform="translate(352.546875 0)"/>
     <use xlink:href="#DejaVuSans-4c" transform="translate(391.755859 0)"/>
     <use xlink:href="#DejaVuSans-53" transform="translate(447.46875 0)"/>
     <use xlink:href="#DejaVuSans-54" transform="translate(510.945312 0)"/>
     <use xlink:href="#DejaVuSans-4d" transform="translate(572.029297 0)"/>
    </g>
   </g>
   <g id="text_7">
    <!-- CrossEntropy + MSE loss -->
    <g style="fill: #111827" transform="translate(340.889172 329.569712) scale(0.11 -0.11)">
     <defs>
      <path id="DejaVuSans-45" d="M 628 4666 
L 3578 4666 
L 3578 4134 
L 1259 4134 
L 1259 2753 
L 3481 2753 
L 3481 2222 
L 1259 2222 
L 1259 531 
L 3634 531 
L 3634 0 
L 628 0 
L 628 4666 
z
" transform="scale(0.015625)"/>
      <path id="DejaVuSans-2b" d="M 2944 4013 
L 2944 2272 
L 4684 2272 
L 4684 1741 
L 2944 1741 
L 2944 0 
L 2419 0 
L 2419 1741 
L 678 1741 
L 678 2272 
L 2419 2272 
L 2419 4013 
L 2944 4013 
z
" transform="scale(0.015625)"/>
     </defs>
     <use xlink:href="#DejaVuSans-43"/>
     <use xlink:href="#DejaVuSans-72" transform="translate(69.824219 0)"/>
     <use xlink:href="#DejaVuSans-6f" transform="translate(108.6875 0)"/>
     <use xlink:href="#DejaVuSans-73" transform="translate(169.869141 0)"/>
     <use xlink:href="#DejaVuSans-73" transform="translate(221.96875 0)"/>
     <use xlink:href="#DejaVuSans-45" transform="translate(274.068359 0)"/>
     <use xlink:href="#DejaVuSans-6e" transform="translate(337.251953 0)"/>
     <use xlink:href="#DejaVuSans-74" transform="translate(400.630859 0)"/>
     <use xlink:href="#DejaVuSans-72" transform="translate(439.839844 0)"/>
     <use xlink:href="#DejaVuSans-6f" transform="translate(478.703125 0)"/>
     <use xlink:href="#DejaVuSans-70" transform="translate(539.884766 0)"/>
     <use xlink:href="#DejaVuSans-79" transform="translate(603.361328 0)"/>
     <use xlink:href="#DejaVuSans-20" transform="translate(662.541016 0)"/>
     <use xlink:href="#DejaVuSans-2b" transform="translate(694.328125 0)"/>
     <use xlink:href="#DejaVuSans-20" transform="translate(778.117188 0)"/>
     <use xlink:href="#DejaVuSans-4d" transform="translate(809.904297 0)"/>
     <use xlink:href="#DejaVuSans-53" transform="translate(896.183594 0)"/>
     <use xlink:href="#DejaVuSans-45" transform="translate(959.660156 0)"/>
     <use xlink:href="#DejaVuSans-20" transform="translate(1022.84375 0)"/>
     <use xlink:href="#DejaVuSans-6c" transform="translate(1054.630859 0)"/>
     <use xlink:href="#DejaVuSans-6f" transform="translate(1082.414062 0)"/>
     <use xlink:href="#DejaVuSans-73" transform="translate(1143.595703 0)"/>
     <use xlink:href="#DejaVuSans-73" transform="translate(1195.695312 0)"/>
    </g>
   </g>
   <g id="text_8">
    <!-- Save context_model.pth -->
    <g style="fill: #111827" transform="translate(549.797797 329.416744) scale(0.11 -0.11)">
     <defs>
      <path id="DejaVuSans-76" d="M 191 3500 
L 800 3500 
L 1894 563 
L 2988 3500 
L 3597 3500 
L 2284 0 
L 1503 0 
L 191 3500 
z
" transform="scale(0.015625)"/>
     </defs>
     <use xlink:href="#DejaVuSans-53"/>
     <use xlink:href="#DejaVuSans-61" transform="translate(63.476562 0)"/>
     <use xlink:href="#DejaVuSans-76" transform="translate(124.755859 0)"/>
     <use xlink:href="#DejaVuSans-65" transform="translate(183.935547 0)"/>
     <use xlink:href="#DejaVuSans-20" transform="translate(245.458984 0)"/>
     <use xlink:href="#DejaVuSans-63" transform="translate(277.246094 0)"/>
     <use xlink:href="#DejaVuSans-6f" transform="translate(332.226562 0)"/>
     <use xlink:href="#DejaVuSans-6e" transform="translate(393.408203 0)"/>
     <use xlink:href="#DejaVuSans-74" transform="translate(456.787109 0)"/>
     <use xlink:href="#DejaVuSans-65" transform="translate(495.996094 0)"/>
     <use xlink:href="#DejaVuSans-78" transform="translate(555.769531 0)"/>
     <use xlink:href="#DejaVuSans-74" transform="translate(614.949219 0)"/>
     <use xlink:href="#DejaVuSans-5f" transform="translate(654.158203 0)"/>
     <use xlink:href="#DejaVuSans-6d" transform="translate(704.158203 0)"/>
     <use xlink:href="#DejaVuSans-6f" transform="translate(801.570312 0)"/>
     <use xlink:href="#DejaVuSans-64" transform="translate(862.751953 0)"/>
     <use xlink:href="#DejaVuSans-65" transform="translate(926.228516 0)"/>
     <use xlink:href="#DejaVuSans-6c" transform="translate(987.751953 0)"/>
     <use xlink:href="#DejaVuSans-2e" transform="translate(1015.535156 0)"/>
     <use xlink:href="#DejaVuSans-70" transform="translate(1047.322266 0)"/>
     <use xlink:href="#DejaVuSans-74" transform="translate(1110.798828 0)"/>
     <use xlink:href="#DejaVuSans-68" transform="translate(1150.007812 0)"/>
    </g>
   </g>
   <g id="patch_9">
    <path d="M 157.627727 193.4784 
Q 167.344963 193.4784 175.049738 193.4784 
" style="fill: none; stroke: #475569; stroke-width: 1.8; stroke-linecap: round"/>
    <path d="M 171.049738 191.4784 
L 175.049738 193.4784 
L 171.049738 195.4784 
" style="fill: none; stroke: #475569; stroke-width: 1.8; stroke-linecap: round"/>
   </g>
   <g id="patch_10">
    <path d="M 298.243727 193.4784 
Q 307.960963 193.4784 315.665738 193.4784 
" style="fill: none; stroke: #475569; stroke-width: 1.8; stroke-linecap: round"/>
    <path d="M 311.665738 191.4784 
L 315.665738 193.4784 
L 311.665738 195.4784 
" style="fill: none; stroke: #475569; stroke-width: 1.8; stroke-linecap: round"/>
   </g>
   <g id="patch_11">
    <path d="M 438.859727 193.4784 
Q 448.576963 193.4784 456.281738 193.4784 
" style="fill: none; stroke: #475569; stroke-width: 1.8; stroke-linecap: round"/>
    <path d="M 452.281738 191.4784 
L 456.281738 193.4784 
L 452.281738 195.4784 
" style="fill: none; stroke: #475569; stroke-width: 1.8; stroke-linecap: round"/>
   </g>
   <g id="patch_12">
    <path d="M 579.475727 193.4784 
Q 589.192963 193.4784 596.897738 193.4784 
" style="fill: none; stroke: #475569; stroke-width: 1.8; stroke-linecap: round"/>
    <path d="M 592.897738 191.4784 
L 596.897738 193.4784 
L 592.897738 195.4784 
" style="fill: none; stroke: #475569; stroke-width: 1.8; stroke-linecap: round"/>
   </g>
   <g id="patch_13">
    <path d="M 655.596 222.092262 
Q 655.596 260.007767 655.596 295.910811 
" style="fill: none; stroke: #475569; stroke-width: 1.8; stroke-linecap: round"/>
    <path d="M 657.596 291.910811 
L 655.596 295.910811 
L 653.596 291.910811 
" style="fill: none; stroke: #475569; stroke-width: 1.8; stroke-linecap: round"/>
   </g>
   <g id="patch_14">
    <path d="M 462.191306 352.499973 
Q 499.356893 339.839696 534.61751 327.828337 
" style="fill: none; stroke: #475569; stroke-width: 1.8; stroke-linecap: round"/>
    <path d="M 530.186264 327.224965 
L 534.61751 327.828337 
L 531.476065 331.01131 
" style="fill: none; stroke: #475569; stroke-width: 1.8; stroke-linecap: round"/>
   </g>
  </g>
 </g>
 <defs>
  <clipPath id="pef20a9d910">
   <rect x="7.2" y="7.2" width="781.2" height="443.52"/>
  </clipPath>
 </defs>
</svg>
